<?xml version="1.0"?>
<svg xmlns="http://www.w3.org/2000/svg" xmlns:lc="http://www.librecad.org" xmlns:xlink="http://www.w3.org/1999/xlink" width="3441.42135624mm" height="1500mm" viewBox="0 0 3441.42135624 1500">
    <g lc:layername="elder_start" lc:is_locked="false" lc:is_construction="false" fill="none" stroke="black" stroke-width="1">
        <circle cx="250" cy="600" r="21.21320344"/>
    </g>
    <g lc:layername="full_occluders" lc:is_locked="false" lc:is_construction="false" fill="none" stroke="black" stroke-width="1">
        <line x1="100" y1="1200" x2="0" y2="1100"/>
        <line x1="0" y1="1100" x2="0" y2="600"/>
        <line x1="0" y1="600" x2="100" y2="500"/>
        <line x1="100" y1="500" x2="100" y2="400"/>
        <line x1="100" y1="400" x2="300" y2="200"/>
        <line x1="300" y1="200" x2="800" y2="200"/>
        <line x1="800" y1="200" x2="1100" y2="600"/>
        <line x1="1100" y1="600" x2="1600" y2="600"/>
        <line x1="1600" y1="600" x2="1900" y2="1000"/>
        <line x1="1900" y1="1000" x2="2700" y2="1000"/>
        <line x1="2700" y1="1000" x2="2800" y2="900"/>
        <line x1="2800" y1="900" x2="2800" y2="700"/>
        <line x1="2800" y1="700" x2="2700" y2="600"/>
        <line x1="2700" y1="600" x2="2700" y2="100"/>
        <line x1="2700" y1="100" x2="2800" y2="0"/>
        <line x1="2800" y1="0" x2="3300" y2="0"/>
        <line x1="3300" y1="0" x2="3400" y2="100"/>
        <line x1="3400" y1="100" x2="3400" y2="600"/>
        <line x1="3400" y1="600" x2="3300" y2="700"/>
        <line x1="3300" y1="700" x2="3300" y2="900"/>
        <line x1="3300" y1="900" x2="3400" y2="1000"/>
        <line x1="3400" y1="1000" x2="3400" y2="1400"/>
        <line x1="3400" y1="1400" x2="3300" y2="1500"/>
        <line x1="3300" y1="1500" x2="2600" y2="1500"/>
        <line x1="2600" y1="1500" x2="2400" y2="1300"/>
        <line x1="2400" y1="1300" x2="1500" y2="1300"/>
        <line x1="1500" y1="1300" x2="1200" y2="900"/>
        <line x1="1200" y1="900" x2="800" y2="900"/>
        <line x1="800" y1="900" x2="500" y2="500"/>
        <line x1="500" y1="500" x2="400" y2="500"/>
        <line x1="400" y1="500" x2="500" y2="600"/>
        <line x1="500" y1="600" x2="500" y2="1100"/>
        <line x1="500" y1="1100" x2="400" y2="1200"/>
        <line x1="400" y1="1200" x2="100" y2="1200"/>
    </g>
    <g lc:layername="guiders" lc:is_locked="false" lc:is_construction="false" fill="none" stroke="black" stroke-width="1">
        <line x1="250" y1="1100" x2="250" y2="600"/>
        <line x1="250" y1="600" x2="300" y2="400"/>
        <line x1="300" y1="400" x2="600" y2="400"/>
        <line x1="600" y1="400" x2="900" y2="800"/>
        <line x1="900" y1="800" x2="1400" y2="800"/>
        <line x1="1400" y1="800" x2="1700" y2="1200"/>
        <line x1="1700" y1="1200" x2="2300" y2="1200"/>
        <line x1="2300" y1="1200" x2="2800" y2="1300"/>
        <line x1="2800" y1="1300" x2="3100" y2="1100"/>
        <line x1="3100" y1="1100" x2="3100" y2="600"/>
        <line x1="3100" y1="600" x2="3060" y2="150"/>
    </g>
    <g lc:layername="player_start" lc:is_locked="false" lc:is_construction="false" fill="none" stroke="black" stroke-width="1">
        <circle cx="3100" cy="1300" r="21.21320344"/>
    </g>
    <g lc:layername="sword_start" lc:is_locked="false" lc:is_construction="false" fill="none" stroke="black" stroke-width="1">
        <circle cx="300" cy="400" r="100"/>
    </g>
    <g lc:layername="wormfields" lc:is_locked="false" lc:is_construction="false" fill="none" stroke="black" stroke-width="1">
        <circle cx="1000" cy="600" r="141.42135624"/>
        <circle cx="2300" cy="1100" r="141.42135624"/>
        <circle cx="3300" cy="1000" r="141.42135624"/>
        <circle cx="2800" cy="600" r="100"/>
        <circle cx="3300" cy="600" r="100"/>
        <circle cx="2800" cy="1000" r="141.42135624"/>
        <circle cx="800" cy="300" r="141.42135624"/>
        <circle cx="1700" cy="858.57864376" r="141.42135624"/>
    </g>
</svg>
