<?xml version="1.0"?>
<svg xmlns="http://www.w3.org/2000/svg" xmlns:lc="http://www.librecad.org" xmlns:xlink="http://www.w3.org/1999/xlink" width="670mm" height="870mm" viewBox="0 0 670 870">
    <g lc:layername="0" lc:is_locked="false" lc:is_construction="false" fill="none" stroke="black" stroke-width="1">
        <line x1="310" y1="620" x2="290" y2="640"/>
        <line x1="290" y1="640" x2="300" y2="710"/>
        <line x1="300" y1="710" x2="340" y2="730"/>
        <line x1="450" y1="720" x2="470" y2="680"/>
        <line x1="470" y1="680" x2="460" y2="630"/>
        <line x1="460" y1="630" x2="440" y2="610"/>
        <line x1="440" y1="610" x2="420" y2="580"/>
        <line x1="420" y1="580" x2="430" y2="520"/>
        <line x1="430" y1="520" x2="410" y2="440"/>
        <line x1="410" y1="440" x2="410" y2="380"/>
        <line x1="410" y1="380" x2="430" y2="330"/>
        <line x1="430" y1="330" x2="420" y2="260"/>
        <line x1="420" y1="260" x2="410" y2="250"/>
        <line x1="310" y1="620" x2="330" y2="560"/>
        <line x1="330" y1="560" x2="340" y2="510"/>
        <line x1="340" y1="510" x2="340" y2="470"/>
        <line x1="340" y1="470" x2="310" y2="410"/>
        <line x1="310" y1="410" x2="320" y2="330"/>
        <line x1="320" y1="330" x2="330" y2="300"/>
        <line x1="330" y1="300" x2="310" y2="280"/>
        <line x1="310" y1="280" x2="280" y2="260"/>
        <line x1="280" y1="260" x2="230" y2="250"/>
        <line x1="230" y1="250" x2="170" y2="230"/>
        <line x1="170" y1="230" x2="110" y2="240"/>
        <line x1="110" y1="240" x2="90" y2="260"/>
        <line x1="90" y1="260" x2="30" y2="240"/>
        <line x1="30" y1="240" x2="0" y2="160"/>
        <line x1="0" y1="160" x2="20" y2="80"/>
        <line x1="20" y1="80" x2="90" y2="20"/>
        <line x1="90" y1="20" x2="160" y2="0"/>
        <line x1="160" y1="0" x2="220" y2="20"/>
        <line x1="220" y1="20" x2="260" y2="50"/>
        <line x1="260" y1="50" x2="290" y2="100"/>
        <line x1="290" y1="100" x2="310" y2="150"/>
        <line x1="310" y1="150" x2="350" y2="160"/>
        <line x1="350" y1="160" x2="390" y2="150"/>
        <line x1="390" y1="150" x2="460" y2="90"/>
        <line x1="460" y1="90" x2="490" y2="50"/>
        <line x1="490" y1="50" x2="530" y2="30"/>
        <line x1="530" y1="30" x2="570" y2="20"/>
        <line x1="570" y1="20" x2="650" y2="10"/>
        <line x1="650" y1="10" x2="670" y2="70"/>
        <line x1="670" y1="70" x2="590" y2="100"/>
        <line x1="590" y1="100" x2="540" y2="120"/>
        <line x1="540" y1="120" x2="470" y2="180"/>
        <line x1="470" y1="180" x2="460" y2="220"/>
        <line x1="460" y1="220" x2="430" y2="240"/>
        <line x1="430" y1="240" x2="410" y2="250"/>
        <line x1="340" y1="730" x2="330" y2="760"/>
        <line x1="330" y1="760" x2="250" y2="750"/>
        <line x1="250" y1="750" x2="170" y2="680"/>
        <line x1="170" y1="680" x2="120" y2="570"/>
        <line x1="120" y1="570" x2="90" y2="450"/>
        <line x1="90" y1="450" x2="80" y2="670"/>
        <line x1="80" y1="670" x2="170" y2="830"/>
        <line x1="170" y1="830" x2="350" y2="870"/>
        <line x1="350" y1="870" x2="540" y2="850"/>
        <line x1="540" y1="850" x2="590" y2="790"/>
        <line x1="590" y1="790" x2="670" y2="650"/>
        <line x1="670" y1="650" x2="660" y2="480"/>
        <line x1="660" y1="480" x2="640" y2="450"/>
        <line x1="640" y1="450" x2="630" y2="540"/>
        <line x1="630" y1="540" x2="570" y2="640"/>
        <line x1="570" y1="640" x2="500" y2="690"/>
        <line x1="500" y1="690" x2="450" y2="720"/>
    </g>
</svg>
