<?xml version="1.0"?>
<svg xmlns="http://www.w3.org/2000/svg" xmlns:lc="http://www.librecad.org" xmlns:xlink="http://www.w3.org/1999/xlink" width="636.27876431mm" height="1162.31705503mm" viewBox="0 0 636.27876431 1162.31705503">
    <g lc:layername="0" lc:is_locked="false" lc:is_construction="false" fill="none" stroke="black" stroke-width="1"/>
    <g lc:layername="elder_start" lc:is_locked="false" lc:is_construction="false" fill="none" stroke="black" stroke-width="1">
        <circle cx="359.85571585" cy="712.60562333" r="21.21320344"/>
    </g>
    <g lc:layername="full_occluders" lc:is_locked="false" lc:is_construction="false" fill="none" stroke="black" stroke-width="1">
        <line x1="573.87495374" y1="1143.29781714" x2="480.9326674" y2="1162.31705503"/>
        <line x1="480.9326674" y1="1162.31705503" x2="370.98076211" y2="1121.87476869"/>
        <line x1="370.98076211" y1="1121.87476869" x2="346.47114317" y2="1049.42286341"/>
        <line x1="346.47114317" y1="1049.42286341" x2="362.94228634" y2="987.95172024"/>
        <line x1="362.94228634" y1="987.95172024" x2="379.41342951" y2="926.48057707"/>
        <line x1="379.41342951" y1="926.48057707" x2="343.92304845" y2="895.0094339"/>
        <line x1="343.92304845" y1="895.0094339" x2="304.41342951" y2="796.5767665"/>
        <line x1="304.41342951" y1="796.5767665" x2="281.91342951" y2="757.60562333"/>
        <line x1="281.91342951" y1="757.60562333" x2="309.36533479" y2="655.15371804"/>
        <line x1="309.36533479" y1="655.15371804" x2="366.81724008" y2="604.66333699"/>
        <line x1="366.81724008" y1="604.66333699" x2="411.27876431" y2="561.67295593"/>
        <line x1="411.27876431" y1="561.67295593" x2="472.2114317" y2="457.2114317"/>
        <line x1="472.2114317" y1="457.2114317" x2="462.70181276" y2="410.74028853"/>
        <line x1="462.70181276" y1="410.74028853" x2="440.20181276" y2="371.76914536"/>
        <line x1="440.20181276" y1="371.76914536" x2="414.22105065" y2="386.76914536"/>
        <line x1="414.22105065" y1="386.76914536" x2="380.74028853" y2="388.77876431"/>
        <line x1="380.74028853" y1="388.77876431" x2="336.27876431" y2="431.76914536"/>
        <line x1="336.27876431" y1="431.76914536" x2="306.81724008" y2="500.74028853"/>
        <line x1="306.81724008" y1="500.74028853" x2="295.83647797" y2="541.72105065"/>
        <line x1="295.83647797" y1="541.72105065" x2="247.89419162" y2="638.68257487"/>
        <line x1="247.89419162" y1="638.68257487" x2="143.97114317" y2="698.68257487"/>
        <line x1="143.97114317" y1="698.68257487" x2="69.50961894" y2="689.7114317"/>
        <line x1="69.50961894" y1="689.7114317" x2="11.51923789" y2="619.26914536"/>
        <line x1="11.51923789" y1="619.26914536" x2="0" y2="539.31724008"/>
        <line x1="0" y1="539.31724008" x2="1.47114317" y2="451.86533479"/>
        <line x1="1.47114317" y1="451.86533479" x2="40.44228634" y2="429.36533479"/>
        <line x1="40.44228634" y1="429.36533479" x2="216.81724008" y2="344.85571585"/>
        <line x1="216.81724008" y1="344.85571585" x2="278.28838325" y2="361.32685902"/>
        <line x1="278.28838325" y1="361.32685902" x2="307.74990748" y2="292.35571585"/>
        <line x1="307.74990748" y1="292.35571585" x2="283.24028853" y2="219.90381057"/>
        <line x1="283.24028853" y1="219.90381057" x2="255.24990748" y2="201.42304845"/>
        <line x1="255.24990748" y1="201.42304845" x2="232.74990748" y2="162.45190528"/>
        <line x1="232.74990748" y1="162.45190528" x2="241.72105065" y2="87.99038106"/>
        <line x1="241.72105065" y1="87.99038106" x2="284.17295593" y2="11.51923789"/>
        <line x1="284.17295593" y1="11.51923789" x2="364.12486121" y2="0"/>
        <line x1="364.12486121" y1="0" x2="438.58638544" y2="8.97114317"/>
        <line x1="438.58638544" y1="8.97114317" x2="440.59600438" y2="42.45190528"/>
        <line x1="440.59600438" y1="42.45190528" x2="457.60562333" y2="101.91342951"/>
        <line x1="457.60562333" y1="101.91342951" x2="411.13448016" y2="111.42304845"/>
        <line x1="411.13448016" y1="111.42304845" x2="351.67295593" y2="128.4326674"/>
        <line x1="351.67295593" y1="128.4326674" x2="320.20181276" y2="163.92304845"/>
        <line x1="320.20181276" y1="163.92304845" x2="322.2114317" y2="197.40381057"/>
        <line x1="322.2114317" y1="197.40381057" x2="346.72105065" y2="269.85571585"/>
        <line x1="346.72105065" y1="269.85571585" x2="369.22105065" y2="308.82685902"/>
        <line x1="369.22105065" y1="308.82685902" x2="293.28838325" y2="387.30762114"/>
        <line x1="293.28838325" y1="387.30762114" x2="246.81724008" y2="396.81724008"/>
        <line x1="246.81724008" y1="396.81724008" x2="161.37495374" y2="428.82685902"/>
        <line x1="161.37495374" y1="428.82685902" x2="96.42304845" y2="466.32685902"/>
        <line x1="96.42304845" y1="466.32685902" x2="111.42304845" y2="492.30762114"/>
        <line x1="111.42304845" y1="492.30762114" x2="137.40381057" y2="477.30762114"/>
        <line x1="137.40381057" y1="477.30762114" x2="171.83331917" y2="446.94127932"/>
        <line x1="171.83331917" y1="446.94127932" x2="248.82685902" y2="430.29800219"/>
        <line x1="248.82685902" y1="430.29800219" x2="261.81724008" y2="422.79800219"/>
        <line x1="261.81724008" y1="422.79800219" x2="302.79800219" y2="433.77876431"/>
        <line x1="302.79800219" y1="433.77876431" x2="352.74990748" y2="370.29800219"/>
        <line x1="352.74990748" y1="370.29800219" x2="391.72105065" y2="347.79800219"/>
        <line x1="391.72105065" y1="347.79800219" x2="490.15371804" y2="308.28838325"/>
        <line x1="490.15371804" y1="308.28838325" x2="518.1440991" y2="326.76914536"/>
        <line x1="518.1440991" y1="326.76914536" x2="548.1440991" y2="378.73066959"/>
        <line x1="548.1440991" y1="378.73066959" x2="554.17295593" y2="479.17295593"/>
        <line x1="554.17295593" y1="479.17295593" x2="524.7114317" y2="548.1440991"/>
        <line x1="524.7114317" y1="548.1440991" x2="422.79800219" y2="641.62486121"/>
        <line x1="422.79800219" y1="641.62486121" x2="406.32685902" y2="703.09600438"/>
        <line x1="406.32685902" y1="703.09600438" x2="492.30762114" y2="792.01905284"/>
        <line x1="492.30762114" y1="792.01905284" x2="546.27876431" y2="795.49981495"/>
        <line x1="546.27876431" y1="795.49981495" x2="587.25952642" y2="806.48057707"/>
        <line x1="587.25952642" y1="806.48057707" x2="632.25952642" y2="884.42286341"/>
        <line x1="632.25952642" y1="884.42286341" x2="636.27876431" y2="951.38438763"/>
        <line x1="636.27876431" y1="951.38438763" x2="614.31724008" y2="1033.34591186"/>
        <line x1="614.31724008" y1="1033.34591186" x2="599.85571585" y2="1128.29781714"/>
        <line x1="599.85571585" y1="1128.29781714" x2="573.87495374" y2="1143.29781714"/>
        <line x1="213.87495374" y1="519.75952642" x2="208.38457268" y2="540.24990748"/>
        <line x1="208.38457268" y1="540.24990748" x2="215.88457268" y2="553.24028853"/>
        <line x1="215.88457268" y1="553.24028853" x2="228.87495374" y2="545.74028853"/>
        <line x1="228.87495374" y1="545.74028853" x2="241.86533479" y2="538.24028853"/>
        <line x1="241.86533479" y1="538.24028853" x2="234.36533479" y2="525.24990748"/>
        <line x1="234.36533479" y1="525.24990748" x2="213.87495374" y2="519.75952642"/>
        <line x1="157.89419162" y1="482.79800219" x2="151.80092488" y2="493.24415461"/>
        <line x1="151.80092488" y1="493.24415461" x2="151.65381057" y2="501.98934514"/>
        <line x1="151.65381057" y1="501.98934514" x2="172.1980392" y2="519.57299294"/>
        <line x1="172.1980392" y1="519.57299294" x2="194.281687" y2="506.82299294"/>
        <line x1="194.281687" y1="506.82299294" x2="199.42399184" y2="491.7297262"/>
        <line x1="199.42399184" y1="491.7297262" x2="191.72302995" y2="475.39126893"/>
        <line x1="191.72302995" y1="475.39126893" x2="172.93361079" y2="475.8470403"/>
        <line x1="172.93361079" y1="475.8470403" x2="157.89419162" y2="482.79800219"/>
        <line x1="156.49132445" y1="627.36816496" x2="146.8490196" y2="634.66720307"/>
        <line x1="146.8490196" y1="634.66720307" x2="151.40286718" y2="654.55469844"/>
        <line x1="151.40286718" y1="654.55469844" x2="177.29036255" y2="660.39315571"/>
        <line x1="177.29036255" y1="660.39315571" x2="193.77593414" y2="643.94700329"/>
        <line x1="193.77593414" y1="643.94700329" x2="197.41823898" y2="626.25566034"/>
        <line x1="197.41823898" y1="626.25566034" x2="186.77112467" y2="616.81431739"/>
        <line x1="186.77112467" y1="616.81431739" x2="161.48651497" y2="621.02008875"/>
        <line x1="161.48651497" y1="621.02008875" x2="156.49132445" y2="627.36816496"/>
        <line x1="24.76056233" y1="459.20379206" x2="20.5153718" y2="466.85090638"/>
        <line x1="20.5153718" y1="466.85090638" x2="27.81440991" y2="476.49321123"/>
        <line x1="27.81440991" y1="476.49321123" x2="43.60382907" y2="470.84128744"/>
        <line x1="43.60382907" y1="470.84128744" x2="44.50094339" y2="463.39513501"/>
        <line x1="44.50094339" y1="463.39513501" x2="43.14805771" y2="452.05186827"/>
        <line x1="43.14805771" y1="452.05186827" x2="26.95671476" y2="451.00763964"/>
        <line x1="26.95671476" y1="451.00763964" x2="24.76056233" y2="459.20379206"/>
    </g>
    <g lc:layername="player_start" lc:is_locked="false" lc:is_construction="false" fill="none" stroke="black" stroke-width="1">
        <circle cx="509.48155546" cy="1031.76517965" r="21.21320344"/>
    </g>
    <g lc:layername="sword_start" lc:is_locked="false" lc:is_construction="false" fill="none" stroke="black" stroke-width="1">
        <circle cx="501.67295593" cy="388.24028853" r="21.21320344"/>
    </g>
    <g lc:layername="wormfields" lc:is_locked="false" lc:is_construction="false" fill="none" stroke="black" stroke-width="1">
        <circle cx="104.46152423" cy="600.24990748" r="54.08326913"/>
    </g>
</svg>
