<?xml version="1.0"?>
<svg xmlns="http://www.w3.org/2000/svg" xmlns:lc="http://www.librecad.org" xmlns:xlink="http://www.w3.org/1999/xlink" width="1000mm" height="1000mm" viewBox="0 0 1000 1000">
    <g lc:layername="0" lc:is_locked="false" lc:is_construction="false" fill="none" stroke="black" stroke-width="1"/>
    <g lc:layername="elder_start" lc:is_locked="false" lc:is_construction="false" fill="none" stroke="black" stroke-width="1">
        <circle cx="260" cy="150" r="14.14213562"/>
    </g>
    <g lc:layername="full_occluders" lc:is_locked="false" lc:is_construction="false" fill="none" stroke="black" stroke-width="1">
        <line x1="440" y1="640" x2="420" y2="660"/>
        <line x1="420" y1="660" x2="430" y2="730"/>
        <line x1="430" y1="730" x2="470" y2="750"/>
        <line x1="580" y1="740" x2="600" y2="700"/>
        <line x1="600" y1="700" x2="590" y2="650"/>
        <line x1="590" y1="650" x2="570" y2="630"/>
        <line x1="570" y1="630" x2="550" y2="600"/>
        <line x1="550" y1="600" x2="560" y2="540"/>
        <line x1="560" y1="540" x2="540" y2="460"/>
        <line x1="540" y1="460" x2="540" y2="400"/>
        <line x1="540" y1="400" x2="560" y2="350"/>
        <line x1="560" y1="350" x2="550" y2="280"/>
        <line x1="550" y1="280" x2="540" y2="270"/>
        <line x1="440" y1="640" x2="460" y2="580"/>
        <line x1="460" y1="580" x2="470" y2="530"/>
        <line x1="470" y1="530" x2="470" y2="490"/>
        <line x1="470" y1="490" x2="440" y2="430"/>
        <line x1="440" y1="430" x2="450" y2="350"/>
        <line x1="450" y1="350" x2="460" y2="320"/>
        <line x1="460" y1="320" x2="440" y2="300"/>
        <line x1="440" y1="300" x2="410" y2="280"/>
        <line x1="410" y1="280" x2="360" y2="270"/>
        <line x1="360" y1="270" x2="300" y2="250"/>
        <line x1="300" y1="250" x2="240" y2="260"/>
        <line x1="240" y1="260" x2="220" y2="280"/>
        <line x1="220" y1="280" x2="160" y2="260"/>
        <line x1="160" y1="260" x2="130" y2="180"/>
        <line x1="130" y1="180" x2="150" y2="100"/>
        <line x1="150" y1="100" x2="220" y2="40"/>
        <line x1="420" y1="120" x2="440" y2="170"/>
        <line x1="440" y1="170" x2="480" y2="180"/>
        <line x1="480" y1="180" x2="520" y2="170"/>
        <line x1="520" y1="170" x2="590" y2="110"/>
        <line x1="590" y1="110" x2="620" y2="70"/>
        <line x1="620" y1="70" x2="660" y2="50"/>
        <line x1="660" y1="50" x2="700" y2="40"/>
        <line x1="700" y1="40" x2="780" y2="30"/>
        <line x1="780" y1="30" x2="800" y2="90"/>
        <line x1="800" y1="90" x2="720" y2="120"/>
        <line x1="720" y1="120" x2="670" y2="140"/>
        <line x1="670" y1="140" x2="600" y2="200"/>
        <line x1="600" y1="200" x2="590" y2="240"/>
        <line x1="590" y1="240" x2="560" y2="260"/>
        <line x1="560" y1="260" x2="540" y2="270"/>
        <line x1="470" y1="750" x2="460" y2="780"/>
        <line x1="460" y1="780" x2="380" y2="770"/>
        <line x1="380" y1="770" x2="300" y2="700"/>
        <line x1="300" y1="700" x2="250" y2="590"/>
        <line x1="250" y1="590" x2="220" y2="470"/>
        <line x1="220" y1="470" x2="210" y2="690"/>
        <line x1="210" y1="690" x2="300" y2="850"/>
        <line x1="300" y1="850" x2="480" y2="890"/>
        <line x1="480" y1="890" x2="670" y2="870"/>
        <line x1="670" y1="870" x2="720" y2="810"/>
        <line x1="720" y1="810" x2="800" y2="670"/>
        <line x1="800" y1="670" x2="790" y2="500"/>
        <line x1="790" y1="500" x2="770" y2="470"/>
        <line x1="770" y1="470" x2="760" y2="560"/>
        <line x1="760" y1="560" x2="700" y2="660"/>
        <line x1="700" y1="660" x2="630" y2="710"/>
        <line x1="630" y1="710" x2="580" y2="740"/>
        <line x1="440" y1="640" x2="420" y2="660"/>
        <line x1="420" y1="660" x2="430" y2="730"/>
        <line x1="430" y1="730" x2="470" y2="750"/>
        <line x1="580" y1="740" x2="600" y2="700"/>
        <line x1="600" y1="700" x2="590" y2="650"/>
        <line x1="590" y1="650" x2="570" y2="630"/>
        <line x1="570" y1="630" x2="550" y2="600"/>
        <line x1="550" y1="600" x2="560" y2="540"/>
        <line x1="560" y1="540" x2="540" y2="460"/>
        <line x1="540" y1="460" x2="540" y2="400"/>
        <line x1="540" y1="400" x2="560" y2="350"/>
        <line x1="560" y1="350" x2="550" y2="280"/>
        <line x1="550" y1="280" x2="540" y2="270"/>
        <line x1="440" y1="640" x2="460" y2="580"/>
        <line x1="460" y1="580" x2="470" y2="530"/>
        <line x1="470" y1="530" x2="470" y2="490"/>
        <line x1="470" y1="490" x2="440" y2="430"/>
        <line x1="440" y1="430" x2="450" y2="350"/>
        <line x1="450" y1="350" x2="460" y2="320"/>
        <line x1="460" y1="320" x2="440" y2="300"/>
        <line x1="440" y1="300" x2="410" y2="280"/>
        <line x1="410" y1="280" x2="360" y2="270"/>
        <line x1="360" y1="270" x2="300" y2="250"/>
        <line x1="300" y1="250" x2="240" y2="260"/>
        <line x1="240" y1="260" x2="220" y2="280"/>
        <line x1="220" y1="280" x2="160" y2="260"/>
        <line x1="160" y1="260" x2="130" y2="180"/>
        <line x1="130" y1="180" x2="150" y2="100"/>
        <line x1="150" y1="100" x2="220" y2="40"/>
        <line x1="420" y1="120" x2="440" y2="170"/>
        <line x1="440" y1="170" x2="480" y2="180"/>
        <line x1="480" y1="180" x2="520" y2="170"/>
        <line x1="520" y1="170" x2="590" y2="110"/>
        <line x1="590" y1="110" x2="620" y2="70"/>
        <line x1="620" y1="70" x2="660" y2="50"/>
        <line x1="660" y1="50" x2="700" y2="40"/>
        <line x1="700" y1="40" x2="780" y2="30"/>
        <line x1="780" y1="30" x2="800" y2="90"/>
        <line x1="800" y1="90" x2="720" y2="120"/>
        <line x1="720" y1="120" x2="670" y2="140"/>
        <line x1="670" y1="140" x2="600" y2="200"/>
        <line x1="600" y1="200" x2="590" y2="240"/>
        <line x1="590" y1="240" x2="560" y2="260"/>
        <line x1="560" y1="260" x2="540" y2="270"/>
        <line x1="470" y1="750" x2="460" y2="780"/>
        <line x1="460" y1="780" x2="380" y2="770"/>
        <line x1="380" y1="770" x2="300" y2="700"/>
        <line x1="300" y1="700" x2="250" y2="590"/>
        <line x1="250" y1="590" x2="220" y2="470"/>
        <line x1="220" y1="470" x2="210" y2="690"/>
        <line x1="210" y1="690" x2="300" y2="850"/>
        <line x1="300" y1="850" x2="480" y2="890"/>
        <line x1="480" y1="890" x2="670" y2="870"/>
        <line x1="670" y1="870" x2="720" y2="810"/>
        <line x1="720" y1="810" x2="800" y2="670"/>
        <line x1="800" y1="670" x2="790" y2="500"/>
        <line x1="790" y1="500" x2="770" y2="470"/>
        <line x1="770" y1="470" x2="760" y2="560"/>
        <line x1="760" y1="560" x2="700" y2="660"/>
        <line x1="700" y1="660" x2="630" y2="710"/>
        <line x1="630" y1="710" x2="580" y2="740"/>
        <line x1="220" y1="40" x2="290" y2="20"/>
        <line x1="290" y1="20" x2="350" y2="40"/>
        <line x1="350" y1="40" x2="390" y2="70"/>
        <line x1="390" y1="70" x2="420" y2="120"/>
        <line x1="220" y1="40" x2="290" y2="20"/>
        <line x1="290" y1="20" x2="350" y2="40"/>
        <line x1="350" y1="40" x2="390" y2="70"/>
        <line x1="390" y1="70" x2="420" y2="120"/>
        <line x1="260" y1="70" x2="240" y2="80"/>
        <line x1="240" y1="80" x2="240" y2="90"/>
        <line x1="250" y1="110" x2="270" y2="110"/>
        <line x1="270" y1="110" x2="290" y2="100"/>
        <line x1="290" y1="100" x2="290" y2="80"/>
        <line x1="290" y1="80" x2="280" y2="60"/>
        <line x1="280" y1="60" x2="260" y2="70"/>
        <line x1="340" y1="60" x2="330" y2="70"/>
        <line x1="330" y1="70" x2="330" y2="80"/>
        <line x1="330" y1="80" x2="340" y2="90"/>
        <line x1="340" y1="90" x2="360" y2="90"/>
        <line x1="360" y1="90" x2="370" y2="80"/>
        <line x1="370" y1="80" x2="360" y2="70"/>
        <line x1="360" y1="70" x2="350" y2="60"/>
        <line x1="350" y1="60" x2="340" y2="60"/>
        <line x1="320" y1="90" x2="310" y2="100"/>
        <line x1="310" y1="100" x2="320" y2="110"/>
        <line x1="320" y1="110" x2="330" y2="100"/>
        <line x1="330" y1="100" x2="320" y2="90"/>
        <line x1="240" y1="90" x2="250" y2="110"/>
        <line x1="190" y1="110" x2="180" y2="120"/>
        <line x1="180" y1="120" x2="180" y2="140"/>
        <line x1="180" y1="140" x2="190" y2="150"/>
        <line x1="190" y1="150" x2="200" y2="150"/>
        <line x1="200" y1="150" x2="220" y2="140"/>
        <line x1="220" y1="140" x2="220" y2="130"/>
        <line x1="220" y1="130" x2="210" y2="110"/>
        <line x1="190" y1="110" x2="210" y2="110"/>
        <line x1="180" y1="220" x2="170" y2="230"/>
        <line x1="170" y1="230" x2="170" y2="250"/>
        <line x1="170" y1="250" x2="180" y2="260"/>
        <line x1="180" y1="260" x2="200" y2="260"/>
        <line x1="200" y1="260" x2="210" y2="250"/>
        <line x1="210" y1="250" x2="210" y2="240"/>
        <line x1="210" y1="240" x2="200" y2="230"/>
        <line x1="200" y1="230" x2="180" y2="220"/>
        <line x1="160" y1="160" x2="150" y2="170"/>
        <line x1="150" y1="170" x2="150" y2="190"/>
        <line x1="150" y1="190" x2="170" y2="200"/>
        <line x1="170" y1="200" x2="180" y2="200"/>
        <line x1="180" y1="200" x2="190" y2="190"/>
        <line x1="190" y1="190" x2="190" y2="170"/>
        <line x1="190" y1="170" x2="180" y2="160"/>
        <line x1="180" y1="160" x2="160" y2="160"/>
        <line x1="210" y1="70" x2="200" y2="80"/>
        <line x1="200" y1="80" x2="210" y2="90"/>
        <line x1="210" y1="90" x2="220" y2="80"/>
        <line x1="220" y1="80" x2="210" y2="70"/>
        <line x1="360" y1="220" x2="340" y2="230"/>
        <line x1="340" y1="230" x2="340" y2="240"/>
        <line x1="340" y1="240" x2="350" y2="250"/>
        <line x1="350" y1="250" x2="370" y2="250"/>
        <line x1="370" y1="250" x2="380" y2="240"/>
        <line x1="380" y1="240" x2="380" y2="230"/>
        <line x1="380" y1="230" x2="370" y2="220"/>
        <line x1="370" y1="220" x2="360" y2="220"/>
        <line x1="260" y1="210" x2="250" y2="220"/>
        <line x1="250" y1="220" x2="260" y2="230"/>
        <line x1="260" y1="230" x2="270" y2="220"/>
        <line x1="270" y1="220" x2="260" y2="210"/>
        <line x1="560" y1="160" x2="570" y2="170"/>
        <line x1="570" y1="170" x2="580" y2="160"/>
        <line x1="580" y1="160" x2="570" y2="150"/>
        <line x1="570" y1="150" x2="560" y2="160"/>
        <line x1="510" y1="320" x2="490" y2="330"/>
        <line x1="490" y1="330" x2="490" y2="340"/>
        <line x1="490" y1="340" x2="510" y2="360"/>
        <line x1="510" y1="360" x2="530" y2="360"/>
        <line x1="530" y1="360" x2="540" y2="350"/>
        <line x1="540" y1="350" x2="540" y2="330"/>
        <line x1="540" y1="330" x2="510" y2="320"/>
        <line x1="1000" y1="0" x2="0" y2="0"/>
        <line x1="0" y1="0" x2="0" y2="1000"/>
        <line x1="0" y1="1000" x2="1000" y2="1000"/>
        <line x1="1000" y1="1000" x2="1000" y2="0"/>
        <line x1="490" y1="770" x2="480" y2="780"/>
        <line x1="480" y1="780" x2="490" y2="800"/>
        <line x1="490" y1="800" x2="510" y2="800"/>
        <line x1="510" y1="800" x2="520" y2="780"/>
        <line x1="520" y1="780" x2="510" y2="770"/>
        <line x1="510" y1="770" x2="490" y2="770"/>
        <line x1="550" y1="660" x2="530" y2="670"/>
        <line x1="530" y1="670" x2="530" y2="680"/>
        <line x1="530" y1="680" x2="540" y2="690"/>
        <line x1="540" y1="690" x2="560" y2="700"/>
        <line x1="560" y1="700" x2="580" y2="690"/>
        <line x1="580" y1="690" x2="580" y2="680"/>
        <line x1="580" y1="680" x2="570" y2="660"/>
        <line x1="570" y1="660" x2="550" y2="660"/>
        <line x1="320" y1="750" x2="300" y2="760"/>
        <line x1="300" y1="760" x2="300" y2="770"/>
        <line x1="300" y1="770" x2="310" y2="790"/>
        <line x1="310" y1="790" x2="320" y2="790"/>
        <line x1="320" y1="790" x2="340" y2="780"/>
        <line x1="340" y1="780" x2="340" y2="770"/>
        <line x1="320" y1="750" x2="340" y2="770"/>
        <line x1="260" y1="720" x2="250" y2="730"/>
        <line x1="250" y1="730" x2="260" y2="740"/>
        <line x1="260" y1="740" x2="270" y2="730"/>
        <line x1="270" y1="730" x2="260" y2="720"/>
        <line x1="250" y1="650" x2="240" y2="660"/>
        <line x1="240" y1="660" x2="250" y2="670"/>
        <line x1="250" y1="670" x2="260" y2="660"/>
        <line x1="260" y1="660" x2="250" y2="650"/>
        <line x1="229" y1="650" x2="226" y2="645"/>
        <line x1="226" y1="645" x2="231" y2="641"/>
        <line x1="231" y1="641" x2="240" y2="642"/>
        <line x1="240" y1="642" x2="239" y2="650"/>
        <line x1="239" y1="650" x2="234" y2="652"/>
        <line x1="234" y1="652" x2="229" y2="650"/>
        <line x1="205" y1="195" x2="194" y2="203"/>
        <line x1="194" y1="203" x2="196" y2="213"/>
        <line x1="196" y1="213" x2="209" y2="218"/>
        <line x1="209" y1="218" x2="215" y2="212"/>
        <line x1="215" y1="212" x2="217" y2="202"/>
        <line x1="217" y1="202" x2="205" y2="195"/>
        <line x1="226" y1="58" x2="222" y2="66"/>
        <line x1="222" y1="66" x2="229" y2="69"/>
        <line x1="229" y1="69" x2="235" y2="67"/>
        <line x1="235" y1="67" x2="235" y2="65"/>
        <line x1="235" y1="65" x2="232" y2="58"/>
        <line x1="232" y1="58" x2="226" y2="58"/>
        <line x1="760" y1="630" x2="740" y2="640"/>
        <line x1="740" y1="640" x2="760" y2="660"/>
        <line x1="760" y1="660" x2="780" y2="660"/>
        <line x1="780" y1="660" x2="790" y2="640"/>
        <line x1="790" y1="640" x2="760" y2="630"/>
        <line x1="771" y1="586" x2="756" y2="599"/>
        <line x1="756" y1="599" x2="767" y2="610"/>
        <line x1="767" y1="610" x2="781" y2="608"/>
        <line x1="781" y1="608" x2="787" y2="597"/>
        <line x1="787" y1="597" x2="778" y2="583"/>
        <line x1="778" y1="583" x2="771" y2="586"/>
    </g>
    <g lc:layername="player_start" lc:is_locked="false" lc:is_construction="false" fill="none" stroke="black" stroke-width="1">
        <circle cx="750" cy="720" r="10"/>
    </g>
    <g lc:layername="wormfields" lc:is_locked="false" lc:is_construction="false" fill="none" stroke="black" stroke-width="1">
        <circle cx="650" cy="770" r="56.56854249"/>
        <circle cx="470" cy="680" r="36.05551275"/>
        <circle cx="370" cy="810" r="36.05551275"/>
        <circle cx="460" cy="230" r="44.72135955"/>
        <circle cx="670" cy="90" r="31.6227766"/>
    </g>
</svg>
