<?xml version="1.0"?>
<svg xmlns="http://www.w3.org/2000/svg" xmlns:lc="http://www.librecad.org" xmlns:xlink="http://www.w3.org/1999/xlink" width="1000mm" height="1000mm" viewBox="0 0 1000 1000">
    <g lc:layername="0" lc:is_locked="false" lc:is_construction="false" fill="none" stroke="black" stroke-width="1"/>
    <g lc:layername="elder_start" lc:is_locked="false" lc:is_construction="false" fill="none" stroke="black" stroke-width="1">
        <circle cx="550" cy="910" r="14.14213562"/>
    </g>
    <g lc:layername="full_occluders" lc:is_locked="false" lc:is_construction="false" fill="none" stroke="black" stroke-width="1">
        <line x1="1000" y1="0" x2="0" y2="0"/>
        <line x1="0" y1="0" x2="0" y2="1000"/>
        <line x1="0" y1="1000" x2="1000" y2="1000"/>
        <line x1="1000" y1="1000" x2="1000" y2="0"/>
        <line x1="500" y1="960" x2="270" y2="900"/>
        <line x1="270" y1="900" x2="200" y2="800"/>
        <line x1="200" y1="800" x2="210" y2="670"/>
        <line x1="210" y1="670" x2="270" y2="640"/>
        <line x1="270" y1="640" x2="350" y2="630"/>
        <line x1="350" y1="630" x2="430" y2="680"/>
        <line x1="430" y1="680" x2="450" y2="720"/>
        <line x1="450" y1="720" x2="470" y2="810"/>
        <line x1="470" y1="810" x2="500" y2="860"/>
        <line x1="500" y1="860" x2="570" y2="870"/>
        <line x1="570" y1="870" x2="650" y2="860"/>
        <line x1="650" y1="860" x2="710" y2="840"/>
        <line x1="710" y1="840" x2="730" y2="820"/>
        <line x1="730" y1="820" x2="760" y2="730"/>
        <line x1="760" y1="730" x2="750" y2="700"/>
        <line x1="750" y1="700" x2="690" y2="660"/>
        <line x1="690" y1="660" x2="670" y2="600"/>
        <line x1="670" y1="600" x2="680" y2="520"/>
        <line x1="680" y1="520" x2="730" y2="490"/>
        <line x1="730" y1="490" x2="770" y2="480"/>
        <line x1="770" y1="480" x2="760" y2="460"/>
        <line x1="760" y1="460" x2="620" y2="480"/>
        <line x1="620" y1="480" x2="510" y2="470"/>
        <line x1="510" y1="470" x2="470" y2="450"/>
        <line x1="470" y1="450" x2="480" y2="410"/>
        <line x1="480" y1="410" x2="530" y2="400"/>
        <line x1="530" y1="400" x2="620" y2="420"/>
        <line x1="620" y1="420" x2="710" y2="410"/>
        <line x1="710" y1="410" x2="750" y2="400"/>
        <line x1="750" y1="400" x2="740" y2="340"/>
        <line x1="740" y1="340" x2="710" y2="310"/>
        <line x1="710" y1="310" x2="670" y2="290"/>
        <line x1="670" y1="290" x2="560" y2="280"/>
        <line x1="560" y1="280" x2="510" y2="290"/>
        <line x1="510" y1="290" x2="430" y2="320"/>
        <line x1="430" y1="320" x2="390" y2="340"/>
        <line x1="390" y1="340" x2="340" y2="400"/>
        <line x1="340" y1="400" x2="290" y2="440"/>
        <line x1="290" y1="440" x2="170" y2="460"/>
        <line x1="170" y1="460" x2="90" y2="420"/>
        <line x1="90" y1="420" x2="60" y2="330"/>
        <line x1="60" y1="330" x2="100" y2="260"/>
        <line x1="100" y1="260" x2="170" y2="240"/>
        <line x1="170" y1="240" x2="200" y2="230"/>
        <line x1="200" y1="230" x2="230" y2="210"/>
        <line x1="230" y1="210" x2="260" y2="140"/>
        <line x1="260" y1="140" x2="210" y2="140"/>
        <line x1="210" y1="140" x2="210" y2="70"/>
        <line x1="210" y1="70" x2="260" y2="70"/>
        <line x1="260" y1="70" x2="260" y2="0"/>
        <line x1="260" y1="0" x2="290" y2="0"/>
        <line x1="290" y1="0" x2="290" y2="70"/>
        <line x1="290" y1="70" x2="340" y2="70"/>
        <line x1="340" y1="70" x2="340" y2="140"/>
        <line x1="340" y1="140" x2="290" y2="140"/>
        <line x1="290" y1="140" x2="270" y2="210"/>
        <line x1="270" y1="210" x2="240" y2="240"/>
        <line x1="240" y1="240" x2="200" y2="270"/>
        <line x1="200" y1="270" x2="210" y2="290"/>
        <line x1="210" y1="290" x2="240" y2="310"/>
        <line x1="240" y1="310" x2="250" y2="350"/>
        <line x1="250" y1="350" x2="250" y2="400"/>
        <line x1="250" y1="400" x2="260" y2="410"/>
        <line x1="260" y1="410" x2="300" y2="390"/>
        <line x1="300" y1="390" x2="400" y2="290"/>
        <line x1="400" y1="290" x2="580" y2="220"/>
        <line x1="580" y1="220" x2="680" y2="250"/>
        <line x1="680" y1="250" x2="800" y2="320"/>
        <line x1="800" y1="320" x2="810" y2="400"/>
        <line x1="810" y1="400" x2="880" y2="390"/>
        <line x1="880" y1="390" x2="970" y2="350"/>
        <line x1="970" y1="350" x2="990" y2="360"/>
        <line x1="990" y1="360" x2="990" y2="410"/>
        <line x1="990" y1="410" x2="940" y2="440"/>
        <line x1="940" y1="440" x2="810" y2="450"/>
        <line x1="810" y1="450" x2="820" y2="480"/>
        <line x1="820" y1="480" x2="870" y2="490"/>
        <line x1="870" y1="490" x2="910" y2="560"/>
        <line x1="910" y1="560" x2="900" y2="660"/>
        <line x1="900" y1="660" x2="830" y2="700"/>
        <line x1="830" y1="700" x2="810" y2="730"/>
        <line x1="810" y1="730" x2="780" y2="830"/>
        <line x1="780" y1="830" x2="740" y2="890"/>
        <line x1="740" y1="890" x2="690" y2="950"/>
        <line x1="690" y1="950" x2="500" y2="960"/>
    </g>
    <g lc:layername="player_start" lc:is_locked="false" lc:is_construction="false" fill="none" stroke="black" stroke-width="1">
        <circle cx="160" cy="330" r="14.14213562"/>
    </g>
    <g lc:layername="wormfields" lc:is_locked="false" lc:is_construction="false" fill="none" stroke="black" stroke-width="1">
        <circle cx="270" cy="100" r="36.05551275"/>
        <circle cx="580" cy="250" r="28.28427125"/>
    </g>
</svg>
