<?xml version="1.0"?>
<svg xmlns="http://www.w3.org/2000/svg" xmlns:lc="http://www.librecad.org" xmlns:xlink="http://www.w3.org/1999/xlink" width="3000mm" height="2900mm" viewBox="0 0 3000 2900">
    <g lc:layername="elder_start" lc:is_locked="false" lc:is_construction="false" fill="none" stroke="black" stroke-width="1">
        <circle cx="800" cy="200" r="100"/>
    </g>
    <g lc:layername="full_occluders" lc:is_locked="false" lc:is_construction="false" fill="none" stroke="black" stroke-width="1">
        <line x1="300" y1="0" x2="1600" y2="0"/>
        <line x1="1600" y1="0" x2="2600" y2="400"/>
        <line x1="2600" y1="400" x2="3000" y2="1200"/>
        <line x1="3000" y1="1200" x2="3000" y2="2100"/>
        <line x1="3000" y1="2100" x2="2500" y2="2700"/>
        <line x1="2500" y1="2700" x2="1800" y2="2900"/>
        <line x1="1800" y1="2900" x2="800" y2="2600"/>
        <line x1="800" y1="2600" x2="500" y2="1900"/>
        <line x1="500" y1="1900" x2="700" y2="1100"/>
        <line x1="700" y1="1100" x2="1500" y2="700"/>
        <line x1="1500" y1="700" x2="2300" y2="800"/>
        <line x1="2300" y1="800" x2="2600" y2="1500"/>
        <line x1="2600" y1="1500" x2="2300" y2="2200"/>
        <line x1="2300" y1="2200" x2="1700" y2="2300"/>
        <line x1="1700" y1="2300" x2="1200" y2="1900"/>
        <line x1="1200" y1="1900" x2="1400" y2="1300"/>
        <line x1="1400" y1="1300" x2="1800" y2="1200"/>
        <line x1="1800" y1="1200" x2="2200" y2="1400"/>
        <line x1="2200" y1="1400" x2="2200" y2="1800"/>
        <line x1="2200" y1="1800" x2="2000" y2="2000"/>
        <line x1="2000" y1="2000" x2="1800" y2="1800"/>
        <line x1="1800" y1="1800" x2="1800" y2="1700"/>
        <line x1="1100" y1="900" x2="200" y2="800"/>
        <line x1="200" y1="800" x2="0" y2="400"/>
        <line x1="0" y1="400" x2="300" y2="0"/>
    </g>
    <g lc:layername="guiders" lc:is_locked="false" lc:is_construction="false" fill="none" stroke="black" stroke-width="1">
        <line x1="400" y1="500" x2="2000" y2="500"/>
        <line x1="2000" y1="500" x2="2700" y2="1100"/>
        <line x1="2700" y1="1100" x2="2800" y2="1900"/>
        <line x1="2800" y1="1900" x2="2300" y2="2500"/>
        <line x1="2300" y1="2500" x2="1200" y2="2500"/>
        <line x1="1200" y1="2500" x2="800" y2="1900"/>
        <line x1="800" y1="1900" x2="1200" y2="1100"/>
        <line x1="1200" y1="1100" x2="2000" y2="1000"/>
        <line x1="2000" y1="1000" x2="2400" y2="1500"/>
        <line x1="2400" y1="1500" x2="2200" y2="2100"/>
        <line x1="2200" y1="2100" x2="1800" y2="2100"/>
        <line x1="1800" y1="2100" x2="1400" y2="1700"/>
        <line x1="1400" y1="1700" x2="1800" y2="1400"/>
        <line x1="1800" y1="1400" x2="2000" y2="1700"/>
    </g>
    <g lc:layername="player_start" lc:is_locked="false" lc:is_construction="false" fill="none" stroke="black" stroke-width="1">
        <circle cx="400" cy="200" r="100"/>
    </g>
    <g lc:layername="skelines" lc:is_locked="false" lc:is_construction="false" fill="none" stroke="black" stroke-width="1"/>
    <g lc:layername="sword_start" lc:is_locked="false" lc:is_construction="false" fill="none" stroke="black" stroke-width="1">
        <circle cx="600" cy="200" r="100"/>
    </g>
    <g lc:layername="totems" lc:is_locked="false" lc:is_construction="false" fill="none" stroke="black" stroke-width="1">
        <circle cx="1500" cy="100" r="100"/>
        <circle cx="1500" cy="600" r="100"/>
        <circle cx="2500" cy="1000" r="100"/>
        <circle cx="2740" cy="840" r="64.03124237"/>
        <circle cx="2520" cy="1910" r="64.03124237"/>
        <circle cx="2840" cy="2140" r="64.03124237"/>
        <circle cx="1990" cy="2340" r="64.03124237"/>
        <circle cx="1950" cy="2750" r="53.85164807"/>
        <circle cx="1100" cy="2600" r="72.11102551"/>
        <circle cx="1400" cy="2160" r="50"/>
        <circle cx="600" cy="1790" r="58.30951895"/>
        <circle cx="1140" cy="1790" r="58.30951895"/>
        <circle cx="1360" cy="840" r="50"/>
        <circle cx="1490" cy="1190" r="53.85164807"/>
        <circle cx="2060" cy="1200" r="56.56854249"/>
        <circle cx="2300" cy="1030" r="56.56854249"/>
        <circle cx="2260" cy="1690" r="42.42640687"/>
        <circle cx="2430" cy="1740" r="44.72135955"/>
        <circle cx="1810" cy="1920" r="44.72135955"/>
        <circle cx="1530" cy="2070" r="56.56854249"/>
        <circle cx="1870" cy="1760" r="36.05551275"/>
        <circle cx="2150" cy="1750" r="36.05551275"/>
        <circle cx="1940" cy="1880" r="28.28427125"/>
        <circle cx="2060" cy="1880" r="28.28427125"/>
    </g>
    <g lc:layername="wormfields" lc:is_locked="false" lc:is_construction="false" fill="none" stroke="black" stroke-width="1"/>
</svg>
