<?xml version="1.0"?>
<svg xmlns="http://www.w3.org/2000/svg" xmlns:lc="http://www.librecad.org" xmlns:xlink="http://www.w3.org/1999/xlink" width="2000mm" height="2000mm" viewBox="0 0 2000 2000">
    <g lc:layername="elder_start" lc:is_locked="false" lc:is_construction="false" fill="none" stroke="black" stroke-width="1">
        <circle cx="1000" cy="1000" r="100"/>
    </g>
    <g lc:layername="full_occluders" lc:is_locked="false" lc:is_construction="false" fill="none" stroke="black" stroke-width="1">
        <line x1="1000" y1="2000" x2="200" y2="1900"/>
        <line x1="200" y1="1900" x2="100" y2="1900"/>
        <line x1="100" y1="1900" x2="100" y2="1800"/>
        <line x1="100" y1="1800" x2="0" y2="1000"/>
        <line x1="0" y1="1000" x2="100" y2="200"/>
        <line x1="100" y1="200" x2="100" y2="100"/>
        <line x1="100" y1="100" x2="200" y2="100"/>
        <line x1="200" y1="100" x2="1000" y2="0"/>
        <line x1="1000" y1="0" x2="1800" y2="100"/>
        <line x1="1800" y1="100" x2="1900" y2="100"/>
        <line x1="1900" y1="100" x2="1900" y2="200"/>
        <line x1="1900" y1="200" x2="2000" y2="1000"/>
        <line x1="2000" y1="1000" x2="1900" y2="1800"/>
        <line x1="1900" y1="1800" x2="1900" y2="1900"/>
        <line x1="1900" y1="1900" x2="1800" y2="1900"/>
        <line x1="1800" y1="1900" x2="1000" y2="2000"/>
        <line x1="400" y1="1700" x2="300" y2="1600"/>
        <line x1="300" y1="1600" x2="300" y2="1500"/>
        <line x1="300" y1="1500" x2="400" y2="1400"/>
        <line x1="400" y1="1400" x2="500" y2="1400"/>
        <line x1="500" y1="1400" x2="600" y2="1500"/>
        <line x1="600" y1="1500" x2="600" y2="1600"/>
        <line x1="600" y1="1600" x2="500" y2="1700"/>
        <line x1="500" y1="1700" x2="400" y2="1700"/>
        <line x1="1700" y1="1600" x2="1700" y2="1500"/>
        <line x1="1700" y1="1500" x2="1600" y2="1400"/>
        <line x1="1600" y1="1400" x2="1500" y2="1400"/>
        <line x1="1500" y1="1400" x2="1400" y2="1500"/>
        <line x1="1400" y1="1500" x2="1400" y2="1600"/>
        <line x1="1400" y1="1600" x2="1500" y2="1700"/>
        <line x1="1500" y1="1700" x2="1600" y2="1700"/>
        <line x1="1600" y1="1700" x2="1700" y2="1600"/>
        <line x1="300" y1="300" x2="400" y2="200"/>
        <line x1="400" y1="200" x2="500" y2="200"/>
        <line x1="500" y1="200" x2="600" y2="300"/>
        <line x1="600" y1="300" x2="600" y2="400"/>
        <line x1="600" y1="400" x2="500" y2="500"/>
        <line x1="500" y1="500" x2="400" y2="500"/>
        <line x1="400" y1="500" x2="300" y2="400"/>
        <line x1="300" y1="400" x2="300" y2="300"/>
        <line x1="1700" y1="300" x2="1700" y2="400"/>
        <line x1="1700" y1="400" x2="1600" y2="500"/>
        <line x1="1600" y1="500" x2="1500" y2="500"/>
        <line x1="1500" y1="500" x2="1400" y2="400"/>
        <line x1="1400" y1="400" x2="1400" y2="300"/>
        <line x1="1400" y1="300" x2="1500" y2="200"/>
        <line x1="1500" y1="200" x2="1600" y2="200"/>
        <line x1="1600" y1="200" x2="1700" y2="300"/>
    </g>
    <g lc:layername="guiders" lc:is_locked="false" lc:is_construction="false" fill="none" stroke="black" stroke-width="1">
        <line x1="1000" y1="1800" x2="1000" y2="1000"/>
        <line x1="1000" y1="1000" x2="200" y2="600"/>
        <line x1="1000" y1="1000" x2="1800" y2="600"/>
        <line x1="1000" y1="1000" x2="1000" y2="500"/>
        <line x1="1000" y1="500" x2="700" y2="200"/>
        <line x1="1000" y1="500" x2="1300" y2="200"/>
        <line x1="1000" y1="1200" x2="200" y2="1200"/>
        <line x1="1000" y1="1200" x2="1800" y2="1200"/>
    </g>
    <g lc:layername="player_start" lc:is_locked="false" lc:is_construction="false" fill="none" stroke="black" stroke-width="1">
        <circle cx="1000" cy="1800" r="100"/>
    </g>
    <g lc:layername="skelines" lc:is_locked="false" lc:is_construction="false" fill="none" stroke="black" stroke-width="1">
        <circle cx="1000" cy="700" r="100"/>
        <circle cx="700" cy="1200" r="100"/>
        <circle cx="1300" cy="1200" r="100"/>
    </g>
    <g lc:layername="sword_start" lc:is_locked="false" lc:is_construction="false" fill="none" stroke="black" stroke-width="1">
        <circle cx="1000" cy="1500" r="100"/>
    </g>
    <g lc:layername="totems" lc:is_locked="false" lc:is_construction="false" fill="none" stroke="black" stroke-width="1">
        <circle cx="600" cy="1000" r="100"/>
        <circle cx="800" cy="700" r="100"/>
        <circle cx="1200" cy="700" r="100"/>
        <circle cx="1000" cy="300" r="100"/>
        <circle cx="1400" cy="1000" r="100"/>
        <circle cx="1200" cy="1400" r="100"/>
        <circle cx="800" cy="1400" r="100"/>
    </g>
    <g lc:layername="wormfields" lc:is_locked="false" lc:is_construction="false" fill="none" stroke="black" stroke-width="1">
        <circle cx="600" cy="600" r="141.42135624"/>
        <circle cx="1400" cy="600" r="141.42135624"/>
        <circle cx="450" cy="1200" r="89.4427191"/>
        <circle cx="1550" cy="1200" r="86.02325267"/>
    </g>
</svg>
