<?xml version="1.0" encoding="UTF-8" standalone="no"?>
<!-- Created with Inkscape (http://www.inkscape.org/) -->

<svg
   xmlns:dc="http://purl.org/dc/elements/1.1/"
   xmlns:cc="http://creativecommons.org/ns#"
   xmlns:rdf="http://www.w3.org/1999/02/22-rdf-syntax-ns#"
   xmlns:svg="http://www.w3.org/2000/svg"
   xmlns="http://www.w3.org/2000/svg"
   xmlns:sodipodi="http://sodipodi.sourceforge.net/DTD/sodipodi-0.dtd"
   xmlns:inkscape="http://www.inkscape.org/namespaces/inkscape"
   width="210mm"
   height="297mm"
   viewBox="0 0 210 297"
   version="1.1"
   id="svg8"
   inkscape:version="0.92.1 r15371"
   sodipodi:docname="owl.svg">
  <defs
     id="defs2" />
  <sodipodi:namedview
     id="base"
     pagecolor="#ffffff"
     bordercolor="#666666"
     borderopacity="1.0"
     inkscape:pageopacity="0.0"
     inkscape:pageshadow="2"
     inkscape:zoom="0.7"
     inkscape:cx="136.88913"
     inkscape:cy="535.25431"
     inkscape:document-units="mm"
     inkscape:current-layer="layer1"
     showgrid="false"
     inkscape:window-width="1920"
     inkscape:window-height="1017"
     inkscape:window-x="-8"
     inkscape:window-y="1072"
     inkscape:window-maximized="1" />
  <metadata
     id="metadata5">
    <rdf:RDF>
      <cc:Work
         rdf:about="">
        <dc:format>image/svg+xml</dc:format>
        <dc:type
           rdf:resource="http://purl.org/dc/dcmitype/StillImage" />
        <dc:title></dc:title>
      </cc:Work>
    </rdf:RDF>
  </metadata>
  <g
     inkscape:label="Layer 1"
     inkscape:groupmode="layer"
     id="layer1">
    <path
       style="fill:#000000;stroke:#000000;stroke-width:0.26458332px;stroke-linecap:butt;stroke-linejoin:miter;stroke-opacity:1"
       d="m 71.815475,232.74404 c 0,0 -24.190476,-100.54166 -16.630952,-114.1488 7.559525,-13.60715 17.386904,-33.261906 27.970237,-34.017861 10.583333,-0.755951 39.78563,6.102227 41.57738,30.238101 6.4256,86.55654 -65.011902,153.45834 -65.011902,153.45834 z"
       id="path3680"
       inkscape:connector-curvature="0"
       sodipodi:nodetypes="cssscc" />
    <path
       style="fill:#000000;stroke:#000000;stroke-width:0.26458332px;stroke-linecap:butt;stroke-linejoin:miter;stroke-opacity:1"
       d="m 70.838111,112.10384 c 0,0 -12.085748,-0.43283 -16.630954,-13.418157 -3.294967,-9.413483 5.669644,-21.166668 5.669644,-21.166668 0,0 3.141271,-3.156695 16.252975,-38.364582 1.540563,-4.136759 -7.852763,41.98964 1.244142,34.806875 7.156673,-5.65079 14.421963,-7.78323 20.678477,-1.355982 9.276535,-4.062522 4.301985,-12.058724 8.126495,-33.261905 0,0 16.06398,18.142856 17.00892,33.828869 0.94494,15.686011 -2.83482,43.27827 -2.83482,43.27827 l -25.324404,17.38691 z"
       id="path3682"
       inkscape:connector-curvature="0"
       sodipodi:nodetypes="cscssccsccc" />
    <ellipse
       style="fill:#ffffff;stroke-width:0.26458332"
       id="path3684"
       cx="70.225288"
       cy="90.136314"
       rx="12.284225"
       ry="4.1577382" />
    <ellipse
       style="fill:#ffffff;stroke-width:0.26458332"
       id="path3684-9"
       cx="103.01195"
       cy="89.979752"
       rx="12.284225"
       ry="4.1577382" />
    <path
       style="fill:#ffffff;stroke:#000000;stroke-width:0.12026227px;stroke-linecap:butt;stroke-linejoin:miter;stroke-opacity:1"
       d="m 86.459978,112.37254 c 0,0 4.988918,-12.862876 2.895153,-18.048948 -2.093763,-5.186081 -6.086242,-1.950559 -6.086242,-1.950559 l -1.528086,8.099047 z"
       id="path4510"
       inkscape:connector-curvature="0" />
    <path
       style="fill:none;stroke:#ffffff;stroke-width:6.48000002;stroke-linecap:butt;stroke-linejoin:miter;stroke-miterlimit:4;stroke-dasharray:none;stroke-opacity:1"
       d="m 110.37511,104.23416 c 0,0 32.33771,71.31568 15.01393,96.75577"
       id="path4512"
       inkscape:connector-curvature="0" />
    <path
       style="fill:none;stroke:#ffffff;stroke-width:2.57999992;stroke-linecap:butt;stroke-linejoin:miter;stroke-miterlimit:4;stroke-dasharray:none;stroke-opacity:1"
       d="m 107.72231,121.37931 c 0,0 32.33771,71.31568 15.01393,96.75577"
       id="path4512-8"
       inkscape:connector-curvature="0" />
    <path
       style="fill:none;stroke:#ffffff;stroke-width:2.57999992;stroke-linecap:butt;stroke-linejoin:miter;stroke-miterlimit:4;stroke-dasharray:none;stroke-opacity:1"
       d="m 115.37071,121.52544 c 0,0 32.33771,71.31568 15.01393,96.75577"
       id="path4512-8-0"
       inkscape:connector-curvature="0" />
    <path
       style="fill:none;stroke:#ffffff;stroke-width:1.48;stroke-linecap:butt;stroke-linejoin:miter;stroke-miterlimit:4;stroke-dasharray:none;stroke-opacity:1"
       d="m 110.45702,145.71592 c 0,0 32.33771,71.31568 15.01393,96.75577"
       id="path4512-8-07"
       inkscape:connector-curvature="0" />
  </g>
</svg>
