<?xml version="1.0" encoding="UTF-8" standalone="no"?>
<!-- Created with Inkscape (http://www.inkscape.org/) -->

<svg
   xmlns:dc="http://purl.org/dc/elements/1.1/"
   xmlns:cc="http://creativecommons.org/ns#"
   xmlns:rdf="http://www.w3.org/1999/02/22-rdf-syntax-ns#"
   xmlns:svg="http://www.w3.org/2000/svg"
   xmlns="http://www.w3.org/2000/svg"
   xmlns:sodipodi="http://sodipodi.sourceforge.net/DTD/sodipodi-0.dtd"
   xmlns:inkscape="http://www.inkscape.org/namespaces/inkscape"
   width="210mm"
   height="297mm"
   viewBox="0 0 210 297"
   version="1.1"
   id="svg8"
   inkscape:version="0.92.1 r15371"
   sodipodi:docname="owl.svg">
  <defs
     id="defs2" />
  <sodipodi:namedview
     id="base"
     pagecolor="#ffffff"
     bordercolor="#666666"
     borderopacity="1.0"
     inkscape:pageopacity="0.0"
     inkscape:pageshadow="2"
     inkscape:zoom="0.7"
     inkscape:cx="136.88913"
     inkscape:cy="649.54002"
     inkscape:document-units="mm"
     inkscape:current-layer="layer1"
     showgrid="false"
     inkscape:window-width="1920"
     inkscape:window-height="1017"
     inkscape:window-x="-8"
     inkscape:window-y="1072"
     inkscape:window-maximized="1" />
  <metadata
     id="metadata5">
    <rdf:RDF>
      <cc:Work
         rdf:about="">
        <dc:format>image/svg+xml</dc:format>
        <dc:type
           rdf:resource="http://purl.org/dc/dcmitype/StillImage" />
        <dc:title />
      </cc:Work>
    </rdf:RDF>
  </metadata>
  <g
     inkscape:label="Layer 1"
     inkscape:groupmode="layer"
     id="layer1">
    <path
       style="fill:#000000;stroke:#000000;stroke-width:0.26458332px;stroke-linecap:butt;stroke-linejoin:miter;stroke-opacity:1"
       d="m 71.815475,232.74404 c 0,0 -24.190476,-100.54166 -16.630952,-114.1488 7.559525,-13.60715 17.386904,-33.261906 27.970237,-34.017861 10.583333,-0.755951 39.78563,6.102227 41.57738,30.238101 6.4256,86.55654 -65.011902,153.45834 -65.011902,153.45834 z"
       id="path3680"
       inkscape:connector-curvature="0"
       sodipodi:nodetypes="cssscc" />
    <path
       style="fill:#000000;stroke:#000000;stroke-width:0.26458332px;stroke-linecap:butt;stroke-linejoin:miter;stroke-opacity:1"
       d="m 64.790492,117.39551 c 0,0 -6.038129,-5.7245 -10.583335,-18.709827 -3.294967,-9.413483 -1.142118,-13.708785 0.755954,-19.276787 4.709742,-13.816045 22.67857,-36.852677 22.67857,-36.852677 2.057518,-3.905474 -10.498597,26.11464 -1.401692,31.027113 7.156673,-5.65079 19.335654,-6.271325 25.592171,0.155923 9.27653,-4.062522 12.37009,-13.572059 15.30804,-29.860119 0,0 5.86421,30.406366 6.04762,33.450892 0.1834,3.044527 5.5981,11.647404 5.38694,18.944559 -0.33281,11.501043 -8.22177,20.175973 -8.22177,20.175973 -24.019819,10.20343 -34.065801,9.58828 -55.562498,0.94495 z"
       id="path3682"
       inkscape:connector-curvature="0"
       sodipodi:nodetypes="csssccczscc" />
    <ellipse
       style="fill:#ffffff;stroke:none;stroke-width:1.31811881;stroke-miterlimit:4;stroke-dasharray:none"
       id="path4501"
       cx="69.698807"
       cy="90.841339"
       rx="12.851191"
       ry="10.043727" />
    <ellipse
       style="fill:#ffffff;stroke:none;stroke-width:1.31811881;stroke-miterlimit:4;stroke-dasharray:none"
       id="path4501-7"
       cx="101.37321"
       cy="91.051216"
       rx="12.851191"
       ry="10.043727" />
  </g>
</svg>
