999
dxfrw 0.6.3
  0
SECTION
  2
HEADER
  9
$ACADVER
  1
AC1021
  9
$DWGCODEPAGE
  3
ANSI_1252
  9
$INSBASE
 10
0
 20
0
 30
0
  9
$EXTMIN
 10
-500
 20
-713.63448015713
 30
0
  9
$EXTMAX
 10
592.3076211353316
 20
597.9998149518622
 30
0
  9
$LIMMIN
 10
0
 20
0
  9
$LIMMAX
 10
420
 20
297
  9
$ORTHOMODE
 70
    0
  9
$REGENMODE
 70
    1
  9
$FILLMODE
 70
    1
  9
$QTEXTMODE
 70
    0
  9
$MIRRTEXT
 70
    0
  9
$LTSCALE
 40
1
  9
$ATTMODE
 70
    0
  9
$TEXTSIZE
 40
2.5
  9
$TRACEWID
 40
15.68
  9
$TEXTSTYLE
  7
STANDARD
  9
$CLAYER
  8
wormfields
  9
$CELTYPE
  6
BYLAYER
  9
$CECOLOR
 62
  256
  9
$CELTSCALE
 40
1
  9
$DISPSILH
 70
    0
  9
$DIMSCALE
 40
2.5
  9
$DIMASZ
 40
2.5
  9
$DIMEXO
 40
0.625
  9
$DIMDLI
 40
3.75
  9
$DIMRND
 40
0
  9
$DIMDLE
 40
0
  9
$DIMEXE
 40
1.25
  9
$DIMTP
 40
0
  9
$DIMTM
 40
0
  9
$DIMTXT
 40
2.5
  9
$DIMCEN
 40
2.5
  9
$DIMTSZ
 40
0
  9
$DIMTOL
 70
    0
  9
$DIMLIM
 70
    0
  9
$DIMTIH
 70
    0
  9
$DIMTOH
 70
    0
  9
$DIMSE1
 70
    0
  9
$DIMSE2
 70
    0
  9
$DIMTAD
 70
    1
  9
$DIMZIN
 70
    8
  9
$DIMBLK
  1

  9
$DIMASO
 70
    1
  9
$DIMSHO
 70
    1
  9
$DIMPOST
  1

  9
$DIMAPOST
  1

  9
$DIMALT
 70
    0
  9
$DIMALTD
 70
    3
  9
$DIMALTF
 40
0.03937
  9
$DIMLFAC
 40
1
  9
$DIMTOFL
 70
    1
  9
$DIMTVP
 40
0
  9
$DIMTIX
 70
    0
  9
$DIMSOXD
 70
    0
  9
$DIMSAH
 70
    0
  9
$DIMBLK1
  1

  9
$DIMBLK2
  1

  9
$DIMSTYLE
  2
STANDARD
  9
$DIMCLRD
 70
    0
  9
$DIMCLRE
 70
    0
  9
$DIMCLRT
 70
    0
  9
$DIMTFAC
 40
1
  9
$DIMGAP
 40
0.625
  9
$DIMJUST
 70
    0
  9
$DIMSD1
 70
    0
  9
$DIMSD2
 70
    0
  9
$DIMTOLJ
 70
    0
  9
$DIMTZIN
 70
    8
  9
$DIMALTZ
 70
    0
  9
$DIMALTTZ
 70
    0
  9
$DIMUPT
 70
    0
  9
$DIMDEC
 70
    2
  9
$DIMTDEC
 70
    2
  9
$DIMALTU
 70
    2
  9
$DIMALTTD
 70
    3
  9
$DIMTXSTY
  7
STANDARD
  9
$DIMAUNIT
 70
    0
  9
$DIMADEC
 70
    0
  9
$DIMALTRND
 40
0
  9
$DIMAZIN
 70
    0
  9
$DIMDSEP
 70
   44
  9
$DIMATFIT
 70
    3
  9
$DIMFRAC
 70
    0
  9
$DIMLDRBLK
  1
STANDARD
  9
$DIMLUNIT
 70
    2
  9
$DIMLWD
 70
   -2
  9
$DIMLWE
 70
   -2
  9
$DIMTMOVE
 70
    0
  9
$DIMFXL
 40
1
  9
$DIMFXLON
 70
    0
  9
$DIMJOGANG
 40
0.7854
  9
$DIMTFILL
 70
    0
  9
$DIMTFILLCLR
 70
    0
  9
$DIMARCSYM
 70
    0
  9
$DIMLTYPE
  6

  9
$DIMLTEX1
  6

  9
$DIMLTEX2
  6

  9
$LUNITS
 70
    2
  9
$LUPREC
 70
    4
  9
$SKETCHINC
 40
1
  9
$FILLETRAD
 40
0
  9
$AUNITS
 70
    0
  9
$AUPREC
 70
    2
  9
$MENU
  1
.
  9
$ELEVATION
 40
0
  9
$PELEVATION
 40
0
  9
$THICKNESS
 40
0
  9
$LIMCHECK
 70
    0
  9
$CHAMFERA
 40
0
  9
$CHAMFERB
 40
0
  9
$CHAMFERC
 40
0
  9
$CHAMFERD
 40
0
  9
$SKPOLY
 70
    0
  9
$USRTIMER
 70
    1
  9
$ANGBASE
 50
0
  9
$ANGDIR
 70
    0
  9
$PDMODE
 70
   34
  9
$PDSIZE
 40
0
  9
$PLINEWID
 40
0
  9
$SPLFRAME
 70
    0
  9
$SPLINETYPE
 70
    2
  9
$SPLINESEGS
 70
    8
  9
$HANDSEED
  5
20000
  9
$SURFTAB1
 70
    6
  9
$SURFTAB2
 70
    6
  9
$SURFTYPE
 70
    6
  9
$SURFU
 70
    6
  9
$SURFV
 70
    6
  9
$UCSBASE
  2

  9
$UCSNAME
  2

  9
$UCSORG
 10
0
 20
0
 30
0
  9
$UCSXDIR
 10
1
 20
0
 30
0
  9
$UCSYDIR
 10
0
 20
1
 30
0
  9
$UCSORTHOREF
  2

  9
$UCSORTHOVIEW
 70
    0
  9
$UCSORGTOP
 10
0
 20
0
 30
0
  9
$UCSORGBOTTOM
 10
0
 20
0
 30
0
  9
$UCSORGLEFT
 10
0
 20
0
 30
0
  9
$UCSORGRIGHT
 10
0
 20
0
 30
0
  9
$UCSORGFRONT
 10
0
 20
0
 30
0
  9
$UCSORGBACK
 10
0
 20
0
 30
0
  9
$PUCSBASE
  2

  9
$PUCSNAME
  2

  9
$PUCSORG
 10
0
 20
0
 30
0
  9
$PUCSXDIR
 10
1
 20
0
 30
0
  9
$PUCSYDIR
 10
0
 20
1
 30
0
  9
$PUCSORTHOREF
  2

  9
$PUCSORTHOVIEW
 70
    0
  9
$PUCSORGTOP
 10
0
 20
0
 30
0
  9
$PUCSORGBOTTOM
 10
0
 20
0
 30
0
  9
$PUCSORGLEFT
 10
0
 20
0
 30
0
  9
$PUCSORGRIGHT
 10
0
 20
0
 30
0
  9
$PUCSORGFRONT
 10
0
 20
0
 30
0
  9
$PUCSORGBACK
 10
0
 20
0
 30
0
  9
$USERI1
 70
    0
  9
$USERI2
 70
    0
  9
$USERI3
 70
    0
  9
$USERI4
 70
    0
  9
$USERI5
 70
    0
  9
$USERR1
 40
0
  9
$USERR2
 40
0
  9
$USERR3
 40
0
  9
$USERR4
 40
0
  9
$USERR5
 40
0
  9
$WORLDVIEW
 70
    1
  9
$SHADEDGE
 70
    3
  9
$SHADEDIF
 70
   70
  9
$TILEMODE
 70
    1
  9
$MAXACTVP
 70
   64
  9
$PINSBASE
 10
0
 20
0
 30
0
  9
$PLIMCHECK
 70
    0
  9
$PEXTMIN
 10
0
 20
0
 30
0
  9
$PEXTMAX
 10
0
 20
0
 30
0
  9
$GRIDMODE
 70
    1
  9
$SNAPSTYLE
 70
    0
  9
$PLIMMIN
 10
0
 20
0
  9
$PLIMMAX
 10
210
 20
297
  9
$UNITMODE
 70
    0
  9
$VISRETAIN
 70
    1
  9
$PLINEGEN
 70
    0
  9
$PSLTSCALE
 70
    1
  9
$TREEDEPTH
 70
 3020
  9
$CMLSTYLE
  2
Standard
  9
$CMLJUST
 70
    0
  9
$CMLSCALE
 40
20
  9
$PROXYGRAPHICS
 70
    1
  9
$MEASUREMENT
 70
    1
  9
$CELWEIGHT
370
   -1
  9
$ENDCAPS
280
    0
  9
$JOINSTYLE
280
    0
  9
$LWDISPLAY
290
    0
  9
$INSUNITS
 70
    0
  9
$HYPERLINKBASE
  1

  9
$STYLESHEET
  1

  9
$XEDIT
290
    1
  9
$CEPSNTYPE
380
    0
  9
$PSTYLEMODE
290
    1
  9
$EXTNAMES
290
    1
  9
$PSVPSCALE
 40
1
  9
$OLESTARTUP
290
    0
  9
$SORTENTS
280
  127
  9
$INDEXCTL
280
    0
  9
$HIDETEXT
280
    1
  9
$XCLIPFRAME
290
    0
  9
$HALOGAP
280
    0
  9
$OBSCOLOR
 70
  257
  9
$OBSLTYPE
280
    0
  9
$INTERSECTIONDISPLAY
280
    0
  9
$INTERSECTIONCOLOR
 70
  257
  9
$DIMASSOC
280
    1
  9
$PROJECTNAME
  1

  9
$CAMERADISPLAY
290
    0
  9
$LENSLENGTH
 40
50
  9
$CAMERAHEIGHT
 40
0
  9
$STEPSPERSEC
 40
2
  9
$STEPSIZE
 40
50
  9
$3DDWFPREC
 40
2
  9
$PSOLWIDTH
 40
5
  9
$PSOLHEIGHT
 40
80
  9
$LOFTANG1
 40
1.570796326794897
  9
$LOFTANG2
 40
1.570796326794897
  9
$LOFTMAG1
 40
0
  9
$LOFTMAG2
 40
0
  9
$LOFTPARAM
 70
    7
  9
$LOFTNORMALS
280
    1
  9
$LATITUDE
 40
1
  9
$LONGITUDE
 40
1
  9
$NORTHDIRECTION
 40
0
  9
$TIMEZONE
 70
-8000
  9
$LIGHTGLYPHDISPLAY
280
    1
  9
$TILEMODELIGHTSYNCH
280
    1
  9
$SOLIDHIST
280
    1
  9
$SHOWHIST
280
    1
  9
$DWFFRAME
280
    2
  9
$DGNFRAME
280
    0
  9
$REALWORLDSCALE
290
    1
  9
$INTERFERECOLOR
 62
    1
  9
$CSHADOW
280
    0
  9
$SHADOWPLANELOCATION
 40
0
  0
ENDSEC
  0
SECTION
  2
CLASSES
  0
ENDSEC
  0
SECTION
  2
TABLES
  0
TABLE
  2
VPORT
  5
8
330
0
100
AcDbSymbolTable
 70
    1
  0
VPORT
  5
31
330
2
100
AcDbSymbolTableRecord
100
AcDbViewportTableRecord
  2
*ACTIVE
 70
    0
 10
0
 20
0
 11
1
 21
1
 12
788.9072907098692
 22
459.3020196839906
 13
0
 23
0
 14
10
 24
10
 15
10
 25
10
 16
0
 26
0
 36
1
 17
0
 27
0
 37
0
 40
1653.877336271864
 41
1.689858490566038
 42
50
 43
0
 44
0
 50
0
 51
0
 71
    0
 72
  100
 73
    1
 74
    3
 75
    0
 76
    1
 77
    0
 78
    0
281
    0
 65
    1
110
0
120
0
130
0
111
1
121
0
131
0
112
0
122
1
132
0
 79
    0
146
0
348
10020
 60
    7
 61
    5
292
1
282
    1
141
0
142
0
 63
  250
421
3358443
  0
ENDTAB
  0
TABLE
  2
LTYPE
  5
5
330
0
100
AcDbSymbolTable
 70
    4
  0
LTYPE
  5
14
330
5
100
AcDbSymbolTableRecord
100
AcDbLinetypeTableRecord
  2
ByBlock
 70
    0
  3

 72
   65
 73
    0
 40
0
  0
LTYPE
  5
15
330
5
100
AcDbSymbolTableRecord
100
AcDbLinetypeTableRecord
  2
ByLayer
 70
    0
  3

 72
   65
 73
    0
 40
0
  0
LTYPE
  5
16
330
5
100
AcDbSymbolTableRecord
100
AcDbLinetypeTableRecord
  2
Continuous
 70
    0
  3
Solid line
 72
   65
 73
    0
 40
0
  0
LTYPE
  5
32
330
5
100
AcDbSymbolTableRecord
100
AcDbLinetypeTableRecord
  2
DOT
 70
    0
  3
Dot . . . . . . . . . . . . . . . . . . . . . .
 72
   65
 73
    2
 40
6.35
 49
0
 74
    0
 49
-6.35
 74
    0
  0
LTYPE
  5
33
330
5
100
AcDbSymbolTableRecord
100
AcDbLinetypeTableRecord
  2
DOTTINY
 70
    0
  3
Dot (.15x) .....................................
 72
   65
 73
    2
 40
0.9525
 49
0
 74
    0
 49
-0.9525
 74
    0
  0
LTYPE
  5
34
330
5
100
AcDbSymbolTableRecord
100
AcDbLinetypeTableRecord
  2
DOT2
 70
    0
  3
Dot (.5x) .....................................
 72
   65
 73
    2
 40
3.175
 49
0
 74
    0
 49
-3.175
 74
    0
  0
LTYPE
  5
35
330
5
100
AcDbSymbolTableRecord
100
AcDbLinetypeTableRecord
  2
DOTX2
 70
    0
  3
Dot (2x) .  .  .  .  .  .  .  .  .  .  .  .  .
 72
   65
 73
    2
 40
12.7
 49
0
 74
    0
 49
-12.7
 74
    0
  0
LTYPE
  5
36
330
5
100
AcDbSymbolTableRecord
100
AcDbLinetypeTableRecord
  2
DASHED
 70
    0
  3
Dashed _ _ _ _ _ _ _ _ _ _ _ _ _ _ _ _ _
 72
   65
 73
    2
 40
19.05
 49
12.7
 74
    0
 49
-6.35
 74
    0
  0
LTYPE
  5
37
330
5
100
AcDbSymbolTableRecord
100
AcDbLinetypeTableRecord
  2
DASHEDTINY
 70
    0
  3
Dashed (.15x) _ _ _ _ _ _ _ _ _ _ _ _ _ _ _ _ _
 72
   65
 73
    2
 40
2.8575
 49
1.905
 74
    0
 49
-0.9525
 74
    0
  0
LTYPE
  5
38
330
5
100
AcDbSymbolTableRecord
100
AcDbLinetypeTableRecord
  2
DASHED2
 70
    0
  3
Dashed (.5x) _ _ _ _ _ _ _ _ _ _ _ _ _ _ _ _ _
 72
   65
 73
    2
 40
9.524999999999999
 49
6.35
 74
    0
 49
-3.175
 74
    0
  0
LTYPE
  5
39
330
5
100
AcDbSymbolTableRecord
100
AcDbLinetypeTableRecord
  2
DASHEDX2
 70
    0
  3
Dashed (2x) ____  ____  ____  ____  ____  ___
 72
   65
 73
    2
 40
38.09999999999999
 49
25.4
 74
    0
 49
-12.7
 74
    0
  0
LTYPE
  5
3A
330
5
100
AcDbSymbolTableRecord
100
AcDbLinetypeTableRecord
  2
DASHDOT
 70
    0
  3
Dash dot __ . __ . __ . __ . __ . __ . __ . __
 72
   65
 73
    4
 40
25.4
 49
12.7
 74
    0
 49
-6.35
 74
    0
 49
0
 74
    0
 49
-6.35
 74
    0
  0
LTYPE
  5
3B
330
5
100
AcDbSymbolTableRecord
100
AcDbLinetypeTableRecord
  2
DASHDOTTINY
 70
    0
  3
Dash dot (.15x) _._._._._._._._._._._._._._._.
 72
   65
 73
    4
 40
3.81
 49
1.905
 74
    0
 49
-0.9525
 74
    0
 49
0
 74
    0
 49
-0.9525
 74
    0
  0
LTYPE
  5
3C
330
5
100
AcDbSymbolTableRecord
100
AcDbLinetypeTableRecord
  2
DASHDOT2
 70
    0
  3
Dash dot (.5x) _._._._._._._._._._._._._._._.
 72
   65
 73
    4
 40
12.7
 49
6.35
 74
    0
 49
-3.175
 74
    0
 49
0
 74
    0
 49
-3.175
 74
    0
  0
LTYPE
  5
3D
330
5
100
AcDbSymbolTableRecord
100
AcDbLinetypeTableRecord
  2
DASHDOTX2
 70
    0
  3
Dash dot (2x) ____  .  ____  .  ____  .  ___
 72
   65
 73
    4
 40
50.8
 49
25.4
 74
    0
 49
-12.7
 74
    0
 49
0
 74
    0
 49
-12.7
 74
    0
  0
LTYPE
  5
3E
330
5
100
AcDbSymbolTableRecord
100
AcDbLinetypeTableRecord
  2
DIVIDE
 70
    0
  3
Divide ____ . . ____ . . ____ . . ____ . . ____
 72
   65
 73
    6
 40
31.75
 49
12.7
 74
    0
 49
-6.35
 74
    0
 49
0
 74
    0
 49
-6.35
 74
    0
 49
0
 74
    0
 49
-6.35
 74
    0
  0
LTYPE
  5
3F
330
5
100
AcDbSymbolTableRecord
100
AcDbLinetypeTableRecord
  2
DIVIDETINY
 70
    0
  3
Divide (.15x) __..__..__..__..__..__..__..__.._
 72
   65
 73
    6
 40
4.7625
 49
1.905
 74
    0
 49
-0.9525
 74
    0
 49
0
 74
    0
 49
-0.9525
 74
    0
 49
0
 74
    0
 49
-0.9525
 74
    0
  0
LTYPE
  5
40
330
5
100
AcDbSymbolTableRecord
100
AcDbLinetypeTableRecord
  2
DIVIDE2
 70
    0
  3
Divide (.5x) __..__..__..__..__..__..__..__.._
 72
   65
 73
    6
 40
15.875
 49
6.35
 74
    0
 49
-3.175
 74
    0
 49
0
 74
    0
 49
-3.175
 74
    0
 49
0
 74
    0
 49
-3.175
 74
    0
  0
LTYPE
  5
41
330
5
100
AcDbSymbolTableRecord
100
AcDbLinetypeTableRecord
  2
DIVIDEX2
 70
    0
  3
Divide (2x) ________  .  .  ________  .  .  _
 72
   65
 73
    6
 40
63.5
 49
25.4
 74
    0
 49
-12.7
 74
    0
 49
0
 74
    0
 49
-12.7
 74
    0
 49
0
 74
    0
 49
-12.7
 74
    0
  0
LTYPE
  5
42
330
5
100
AcDbSymbolTableRecord
100
AcDbLinetypeTableRecord
  2
BORDER
 70
    0
  3
Border __ __ . __ __ . __ __ . __ __ . __ __ .
 72
   65
 73
    6
 40
44.45
 49
12.7
 74
    0
 49
-6.35
 74
    0
 49
12.7
 74
    0
 49
-6.35
 74
    0
 49
0
 74
    0
 49
-6.35
 74
    0
  0
LTYPE
  5
43
330
5
100
AcDbSymbolTableRecord
100
AcDbLinetypeTableRecord
  2
BORDERTINY
 70
    0
  3
Border (.15x) __.__.__.__.__.__.__.__.__.__.__.
 72
   65
 73
    6
 40
6.6675
 49
1.905
 74
    0
 49
-0.9525
 74
    0
 49
1.905
 74
    0
 49
-0.9525
 74
    0
 49
0
 74
    0
 49
-0.9525
 74
    0
  0
LTYPE
  5
44
330
5
100
AcDbSymbolTableRecord
100
AcDbLinetypeTableRecord
  2
BORDER2
 70
    0
  3
Border (.5x) __.__.__.__.__.__.__.__.__.__.__.
 72
   65
 73
    6
 40
22.225
 49
6.35
 74
    0
 49
-3.175
 74
    0
 49
6.35
 74
    0
 49
-3.175
 74
    0
 49
0
 74
    0
 49
-3.175
 74
    0
  0
LTYPE
  5
45
330
5
100
AcDbSymbolTableRecord
100
AcDbLinetypeTableRecord
  2
BORDERX2
 70
    0
  3
Border (2x) ____  ____  .  ____  ____  .  ___
 72
   65
 73
    6
 40
88.89999999999999
 49
25.4
 74
    0
 49
-12.7
 74
    0
 49
25.4
 74
    0
 49
-12.7
 74
    0
 49
0
 74
    0
 49
-12.7
 74
    0
  0
LTYPE
  5
46
330
5
100
AcDbSymbolTableRecord
100
AcDbLinetypeTableRecord
  2
CENTER
 70
    0
  3
Center ____ _ ____ _ ____ _ ____ _ ____ _ ____
 72
   65
 73
    4
 40
50.8
 49
31.75
 74
    0
 49
-6.35
 74
    0
 49
6.35
 74
    0
 49
-6.35
 74
    0
  0
LTYPE
  5
47
330
5
100
AcDbSymbolTableRecord
100
AcDbLinetypeTableRecord
  2
CENTERTINY
 70
    0
  3
Center (.15x) ___ _ ___ _ ___ _ ___ _ ___ _ ___
 72
   65
 73
    4
 40
7.62
 49
4.7625
 74
    0
 49
-0.9525
 74
    0
 49
0.9525
 74
    0
 49
-0.9525
 74
    0
  0
LTYPE
  5
48
330
5
100
AcDbSymbolTableRecord
100
AcDbLinetypeTableRecord
  2
CENTER2
 70
    0
  3
Center (.5x) ___ _ ___ _ ___ _ ___ _ ___ _ ___
 72
   65
 73
    4
 40
28.575
 49
19.05
 74
    0
 49
-3.175
 74
    0
 49
3.175
 74
    0
 49
-3.175
 74
    0
  0
LTYPE
  5
49
330
5
100
AcDbSymbolTableRecord
100
AcDbLinetypeTableRecord
  2
CENTERX2
 70
    0
  3
Center (2x) ________  __  ________  __  _____
 72
   65
 73
    4
 40
101.6
 49
63.5
 74
    0
 49
-12.7
 74
    0
 49
12.7
 74
    0
 49
-12.7
 74
    0
  0
ENDTAB
  0
TABLE
  2
LAYER
  5
2
330
0
100
AcDbSymbolTable
 70
    1
  0
LAYER
  5
10
330
2
100
AcDbSymbolTableRecord
100
AcDbLayerTableRecord
  2
0
 70
    0
 62
    7
  6
CONTINUOUS
370
    0
390
F
  0
LAYER
  5
4A
330
2
100
AcDbSymbolTableRecord
100
AcDbLayerTableRecord
  2
elder_start
 70
    0
 62
    4
  6
CONTINUOUS
370
    0
390
F
  0
LAYER
  5
4B
330
2
100
AcDbSymbolTableRecord
100
AcDbLayerTableRecord
  2
full_occluders
 70
    0
 62
    7
  6
CONTINUOUS
370
    0
390
F
  0
LAYER
  5
4C
330
2
100
AcDbSymbolTableRecord
100
AcDbLayerTableRecord
  2
player_start
 70
    0
 62
    6
  6
CONTINUOUS
370
    0
390
F
  0
LAYER
  5
4D
330
2
100
AcDbSymbolTableRecord
100
AcDbLayerTableRecord
  2
sword_start
 70
    0
 62
   11
420
16733567
  6
CONTINUOUS
370
    0
390
F
  0
LAYER
  5
4E
330
2
100
AcDbSymbolTableRecord
100
AcDbLayerTableRecord
  2
wormfields
 70
    0
 62
    3
  6
CONTINUOUS
370
    0
390
F
  0
ENDTAB
  0
TABLE
  2
STYLE
  5
3
330
0
100
AcDbSymbolTable
 70
    3
  0
STYLE
  5
4F
330
2
100
AcDbSymbolTableRecord
100
AcDbTextStyleTableRecord
  2
Standard
 70
    0
 40
0
 41
1
 50
0
 71
    0
 42
1
  3
txt
  4

  0
ENDTAB
  0
TABLE
  2
VIEW
  5
6
330
0
100
AcDbSymbolTable
 70
    0
  0
ENDTAB
  0
TABLE
  2
UCS
  5
7
330
0
100
AcDbSymbolTable
 70
    0
  0
ENDTAB
  0
TABLE
  2
APPID
  5
9
330
0
100
AcDbSymbolTable
 70
    1
  0
APPID
  5
12
330
9
100
AcDbSymbolTableRecord
100
AcDbRegAppTableRecord
  2
ACAD
 70
    0
  0
APPID
  5
50
330
9
100
AcDbSymbolTableRecord
100
AcDbRegAppTableRecord
  2
LibreCad
 70
    0
  0
ENDTAB
  0
TABLE
  2
DIMSTYLE
  5
A
330
0
100
AcDbSymbolTable
 70
    1
100
AcDbDimStyleTable
 71
    1
  0
DIMSTYLE
105
51
330
A
100
AcDbSymbolTableRecord
100
AcDbDimStyleTableRecord
  2
Standard
 70
    0
 40
2.5
 41
2.5
 42
0.625
 43
0.38
 44
1.25
 45
0
 46
0
 47
0
 48
0
 49
1
140
2.5
141
0.09
142
0
143
25.4
144
1
145
0
146
1
147
0.625
148
0
 71
    0
 72
    0
 73
    0
 74
    1
 75
    0
 76
    0
 77
    0
 78
    8
 79
    0
170
    0
171
    2
172
    0
173
    0
174
    0
175
    0
176
    0
177
    0
178
    0
179
    0
271
    2
272
    4
273
    2
274
    2
275
    0
276
    0
277
    2
278
   44
279
    0
280
    0
281
    0
282
    0
283
    1
284
    0
285
    0
286
    0
288
    0
289
    3
340
STANDARD
341

371
   -2
372
   -2
  0
ENDTAB
  0
TABLE
  2
BLOCK_RECORD
  5
1
330
0
100
AcDbSymbolTable
 70
    2
  0
BLOCK_RECORD
  5
1F
330
1
100
AcDbSymbolTableRecord
100
AcDbBlockTableRecord
  2
*Model_Space
 70
    0
280
    1
281
    0
  0
BLOCK_RECORD
  5
1E
330
1
100
AcDbSymbolTableRecord
100
AcDbBlockTableRecord
  2
*Paper_Space
 70
    0
280
    1
281
    0
  0
ENDTAB
  0
ENDSEC
  0
SECTION
  2
BLOCKS
  0
BLOCK
  5
20
330
1F
100
AcDbEntity
  8
0
100
AcDbBlockBegin
  2
*Model_Space
 70
    0
 10
0
 20
0
 30
0
  3
*Model_Space
  1

  0
ENDBLK
  5
21
330
1F
100
AcDbEntity
  8
0
100
AcDbBlockEnd
  0
BLOCK
  5
1C
330
1B
100
AcDbEntity
  8
0
100
AcDbBlockBegin
  2
*Paper_Space
 70
    0
 10
0
 20
0
 30
0
  3
*Paper_Space
  1

  0
ENDBLK
  5
1D
330
1F
100
AcDbEntity
  8
0
100
AcDbBlockEnd
  0
ENDSEC
  0
SECTION
  2
ENTITIES
  0
LINE
  5
52
100
AcDbEntity
  8
full_occluders
  6
ByLayer
 62
  256
370
   -1
100
AcDbLine
 10
218.5288568297003
 20
-545.2980021920981
 11
125.5865704891008
 21
-564.317240078565
  0
LINE
  5
53
100
AcDbEntity
  8
full_occluders
  6
ByLayer
 62
  256
370
   -1
100
AcDbLine
 10
125.5865704891008
 20
-564.317240078565
 11
15.63466520526788
 21
-523.8749537379655
  0
LINE
  5
54
100
AcDbEntity
  8
full_occluders
  6
ByLayer
 62
  256
370
   -1
100
AcDbLine
 10
15.63466520526788
 20
-523.8749537379655
 11
-8.874953737965541
 21
-451.4230484541325
  0
LINE
  5
55
100
AcDbEntity
  8
full_occluders
  6
ByLayer
 62
  256
370
   -1
100
AcDbLine
 10
-8.874953737965541
 20
-451.4230484541325
 11
7.596189432334199
 21
-389.9519052838328
  0
LINE
  5
56
100
AcDbEntity
  8
full_occluders
  6
ByLayer
 62
  256
370
   -1
100
AcDbLine
 10
7.596189432334199
 20
-389.9519052838328
 11
24.06733260263394
 21
-328.4807621135331
  0
LINE
  5
57
100
AcDbEntity
  8
full_occluders
  6
ByLayer
 62
  256
370
   -1
100
AcDbLine
 10
24.06733260263394
 20
-328.4807621135331
 11
-11.42304845413264
 21
-297.0096189432334
  0
LINE
  5
58
100
AcDbEntity
  8
full_occluders
  6
ByLayer
 62
  256
370
   -1
100
AcDbLine
 10
-11.42304845413264
 20
-297.0096189432334
 11
-50.93266739736606
 21
-198.5769515458673
  0
LINE
  5
59
100
AcDbEntity
  8
full_occluders
  6
ByLayer
 62
  256
370
   -1
100
AcDbLine
 10
-50.93266739736606
 20
-198.5769515458673
 11
-73.43266739736606
 21
-159.6058083755676
  0
LINE
  5
5A
100
AcDbEntity
  8
full_occluders
  6
ByLayer
 62
  256
370
   -1
100
AcDbLine
 10
-73.43266739736606
 20
-159.6058083755676
 11
-45.98076211353316
 21
-57.15390309173466
  0
LINE
  5
5B
100
AcDbEntity
  8
full_occluders
  6
ByLayer
 62
  256
370
   -1
100
AcDbLine
 10
-45.98076211353316
 20
-57.15390309173466
 11
11.47114317029974
 21
-6.663522034968111
  0
LINE
  5
5C
100
AcDbEntity
  8
full_occluders
  6
ByLayer
 62
  256
370
   -1
100
AcDbLine
 10
11.47114317029974
 20
-6.663522034968111
 11
55.93266739736606
 21
36.32685902179848
  0
LINE
  5
5D
100
AcDbEntity
  8
full_occluders
  6
ByLayer
 62
  256
370
   -1
100
AcDbLine
 10
55.93266739736606
 20
36.32685902179848
 11
116.8653347947321
 21
140.7883832488648
  0
LINE
  5
5E
100
AcDbEntity
  8
full_occluders
  6
ByLayer
 62
  256
370
   -1
100
AcDbLine
 10
116.8653347947321
 20
140.7883832488648
 11
107.3557158514987
 21
187.2595264191646
  0
LINE
  5
5F
100
AcDbEntity
  8
full_occluders
  6
ByLayer
 62
  256
370
   -1
100
AcDbLine
 10
107.3557158514987
 20
187.2595264191646
 11
84.8557158514987
 21
226.2306695894643
  0
LINE
  5
60
100
AcDbEntity
  8
full_occluders
  6
ByLayer
 62
  256
370
   -1
100
AcDbLine
 10
84.8557158514987
 20
226.2306695894643
 11
58.87495373796554
 21
211.2306695894643
  0
LINE
  5
61
100
AcDbEntity
  8
full_occluders
  6
ByLayer
 62
  256
370
   -1
100
AcDbLine
 10
58.87495373796554
 20
211.2306695894643
 11
25.39419162443238
 21
209.2210506462309
  0
LINE
  5
62
100
AcDbEntity
  8
full_occluders
  6
ByLayer
 62
  256
370
   -1
100
AcDbLine
 10
25.39419162443238
 20
209.2210506462309
 11
-19.06733260263394
 21
166.2306695894643
  0
LINE
  5
63
100
AcDbEntity
  8
full_occluders
  6
ByLayer
 62
  256
370
   -1
100
AcDbLine
 10
-19.06733260263394
 20
166.2306695894643
 11
-48.52885682970026
 21
97.25952641916456
  0
LINE
  5
64
100
AcDbEntity
  8
full_occluders
  6
ByLayer
 62
  256
370
   -1
100
AcDbLine
 10
-48.52885682970026
 20
97.25952641916456
 11
-59.50961894323342
 21
56.2787643056314
  0
LINE
  5
65
100
AcDbEntity
  8
full_occluders
  6
ByLayer
 62
  256
370
   -1
100
AcDbLine
 10
-59.50961894323342
 20
56.2787643056314
 11
-107.4519052838329
 21
-40.68275992143492
  0
LINE
  5
66
100
AcDbEntity
  8
full_occluders
  6
ByLayer
 62
  256
370
   -1
100
AcDbLine
 10
-107.4519052838329
 20
-40.68275992143492
 11
-211.3749537379655
 21
-100.6827599214349
  0
LINE
  5
67
100
AcDbEntity
  8
full_occluders
  6
ByLayer
 62
  256
370
   -1
100
AcDbLine
 10
-211.3749537379655
 20
-100.6827599214349
 11
-285.8364779650319
 21
-91.71161675113518
  0
LINE
  5
68
100
AcDbEntity
  8
full_occluders
  6
ByLayer
 62
  256
370
   -1
100
AcDbLine
 10
-285.8364779650319
 20
-91.71161675113518
 11
-343.8268590217984
 21
-21.2693304105357
  0
LINE
  5
69
100
AcDbEntity
  8
full_occluders
  6
ByLayer
 62
  256
370
   -1
100
AcDbLine
 10
-343.8268590217984
 20
-21.2693304105357
 11
-355.3460969082653
 21
58.6825748732972
  0
LINE
  5
6A
100
AcDbEntity
  8
full_occluders
  6
ByLayer
 62
  256
370
   -1
100
AcDbLine
 10
-355.3460969082653
 20
58.6825748732972
 11
-353.8749537379655
 21
146.1344801571301
  0
LINE
  5
6B
100
AcDbEntity
  8
full_occluders
  6
ByLayer
 62
  256
370
   -1
100
AcDbLine
 10
-353.8749537379655
 20
146.1344801571301
 11
-314.9038105676658
 21
168.6344801571301
  0
LINE
  5
6C
100
AcDbEntity
  8
full_occluders
  6
ByLayer
 62
  256
370
   -1
100
AcDbLine
 10
-314.9038105676658
 20
168.6344801571301
 11
-138.5288568297002
 21
253.1440991003635
  0
LINE
  5
6D
100
AcDbEntity
  8
full_occluders
  6
ByLayer
 62
  256
370
   -1
100
AcDbLine
 10
-138.5288568297002
 20
253.1440991003635
 11
-77.05771365940049
 21
236.6729559300638
  0
LINE
  5
6E
100
AcDbEntity
  8
full_occluders
  6
ByLayer
 62
  256
370
   -1
100
AcDbLine
 10
-77.05771365940049
 20
236.6729559300638
 11
-47.59618943233414
 21
305.6440991003635
  0
LINE
  5
6F
100
AcDbEntity
  8
full_occluders
  6
ByLayer
 62
  256
370
   -1
100
AcDbLine
 10
-47.59618943233414
 20
305.6440991003635
 11
-72.10580837556759
 21
378.0960043841965
  0
LINE
  5
70
100
AcDbEntity
  8
full_occluders
  6
ByLayer
 62
  256
370
   -1
100
AcDbLine
 10
-72.10580837556759
 20
378.0960043841965
 11
-100.0961894323342
 21
396.5767664977295
  0
LINE
  5
71
100
AcDbEntity
  8
full_occluders
  6
ByLayer
 62
  256
370
   -1
100
AcDbLine
 10
-100.0961894323342
 20
396.5767664977295
 11
-122.5961894323342
 21
435.5479096680293
  0
LINE
  5
72
100
AcDbEntity
  8
full_occluders
  6
ByLayer
 62
  256
370
   -1
100
AcDbLine
 10
-122.5961894323342
 20
435.5479096680293
 11
-113.6250462620344
 21
510.0094338950956
  0
LINE
  5
73
100
AcDbEntity
  8
full_occluders
  6
ByLayer
 62
  256
370
   -1
100
AcDbLine
 10
-113.6250462620344
 20
510.0094338950956
 11
-71.1731409782015
 21
586.4805770653954
  0
LINE
  5
74
100
AcDbEntity
  8
full_occluders
  6
ByLayer
 62
  256
370
   -1
100
AcDbLine
 10
-71.1731409782015
 20
586.4805770653954
 11
8.778764305631398
 21
597.9998149518622
  0
LINE
  5
75
100
AcDbEntity
  8
full_occluders
  6
ByLayer
 62
  256
370
   -1
100
AcDbLine
 10
8.778764305631398
 20
597.9998149518622
 11
83.24028853269772
 21
589.0286717815625
  0
LINE
  5
76
100
AcDbEntity
  8
full_occluders
  6
ByLayer
 62
  256
370
   -1
100
AcDbLine
 10
83.24028853269772
 20
589.0286717815625
 11
85.24990747593114
 21
555.5479096680293
  0
LINE
  5
77
100
AcDbEntity
  8
full_occluders
  6
ByLayer
 62
  256
370
   -1
100
AcDbLine
 10
85.24990747593114
 20
555.5479096680293
 11
102.2595264191646
 21
496.086385440963
  0
LINE
  5
78
100
AcDbEntity
  8
full_occluders
  6
ByLayer
 62
  256
370
   -1
100
AcDbLine
 10
102.2595264191646
 20
496.086385440963
 11
55.78838324886482
 21
486.5767664977295
  0
LINE
  5
79
100
AcDbEntity
  8
full_occluders
  6
ByLayer
 62
  256
370
   -1
100
AcDbLine
 10
55.78838324886482
 20
486.5767664977295
 11
-3.673140978201502
 21
469.5671475544962
  0
LINE
  5
7A
100
AcDbEntity
  8
full_occluders
  6
ByLayer
 62
  256
370
   -1
100
AcDbLine
 10
-3.673140978201502
 20
469.5671475544962
 11
-35.14428414850124
 21
434.0767664977295
  0
LINE
  5
7B
100
AcDbEntity
  8
full_occluders
  6
ByLayer
 62
  256
370
   -1
100
AcDbLine
 10
-35.14428414850124
 20
434.0767664977295
 11
-33.13466520526782
 21
400.5960043841965
  0
LINE
  5
7C
100
AcDbEntity
  8
full_occluders
  6
ByLayer
 62
  256
370
   -1
100
AcDbLine
 10
-33.13466520526782
 20
400.5960043841965
 11
-8.625046262034459
 21
328.1440991003635
  0
LINE
  5
7D
100
AcDbEntity
  8
full_occluders
  6
ByLayer
 62
  256
370
   -1
100
AcDbLine
 10
-8.625046262034459
 20
328.1440991003635
 11
13.87495373796554
 21
289.1729559300638
  0
LINE
  5
7E
100
AcDbEntity
  8
full_occluders
  6
ByLayer
 62
  256
370
   -1
100
AcDbLine
 10
13.87495373796554
 20
289.1729559300638
 11
-62.05771365940049
 21
210.6921938165306
  0
LINE
  5
7F
100
AcDbEntity
  8
full_occluders
  6
ByLayer
 62
  256
370
   -1
100
AcDbLine
 10
-62.05771365940049
 20
210.6921938165306
 11
-108.5288568297002
 21
201.1825748732972
  0
LINE
  5
80
100
AcDbEntity
  8
full_occluders
  6
ByLayer
 62
  256
370
   -1
100
AcDbLine
 10
-108.5288568297002
 20
201.1825748732972
 11
-193.9711431702997
 21
169.1729559300638
  0
LINE
  5
81
100
AcDbEntity
  8
full_occluders
  6
ByLayer
 62
  256
370
   -1
100
AcDbLine
 10
-193.9711431702997
 20
169.1729559300638
 11
-258.9230484541326
 21
131.6729559300638
  0
LINE
  5
82
100
AcDbEntity
  8
full_occluders
  6
ByLayer
 62
  256
370
   -1
100
AcDbLine
 10
-258.9230484541326
 20
131.6729559300638
 11
-243.9230484541326
 21
105.6921938165306
  0
LINE
  5
83
100
AcDbEntity
  8
full_occluders
  6
ByLayer
 62
  256
370
   -1
100
AcDbLine
 10
-243.9230484541326
 20
105.6921938165306
 11
-217.9422863405995
 21
120.6921938165306
  0
LINE
  5
84
100
AcDbEntity
  8
full_occluders
  6
ByLayer
 62
  256
370
   -1
100
AcDbLine
 10
-217.9422863405995
 20
120.6921938165306
 11
-183.5127777362796
 21
151.0585356342189
  0
LINE
  5
85
100
AcDbEntity
  8
full_occluders
  6
ByLayer
 62
  256
370
   -1
100
AcDbLine
 10
-183.5127777362796
 20
151.0585356342189
 11
-106.5192378864668
 21
167.701812759764
  0
LINE
  5
86
100
AcDbEntity
  8
full_occluders
  6
ByLayer
 62
  256
370
   -1
100
AcDbLine
 10
-106.5192378864668
 20
167.701812759764
 11
-93.52885682970023
 21
175.201812759764
  0
LINE
  5
87
100
AcDbEntity
  8
full_occluders
  6
ByLayer
 62
  256
370
   -1
100
AcDbLine
 10
-93.52885682970023
 20
175.201812759764
 11
-52.5480947161671
 21
164.2210506462309
  0
LINE
  5
88
100
AcDbEntity
  8
full_occluders
  6
ByLayer
 62
  256
370
   -1
100
AcDbLine
 10
-52.5480947161671
 20
164.2210506462309
 11
-2.596189432334199
 21
227.701812759764
  0
LINE
  5
89
100
AcDbEntity
  8
full_occluders
  6
ByLayer
 62
  256
370
   -1
100
AcDbLine
 10
-2.596189432334199
 20
227.701812759764
 11
36.37495373796554
 21
250.201812759764
  0
LINE
  5
8A
100
AcDbEntity
  8
full_occluders
  6
ByLayer
 62
  256
370
   -1
100
AcDbLine
 10
36.37495373796554
 20
250.201812759764
 11
134.8076211353317
 21
289.7114317029974
  0
LINE
  5
8B
100
AcDbEntity
  8
full_occluders
  6
ByLayer
 62
  256
370
   -1
100
AcDbLine
 10
134.8076211353317
 20
289.7114317029974
 11
162.7980021920982
 21
271.2306695894642
  0
LINE
  5
8C
100
AcDbEntity
  8
full_occluders
  6
ByLayer
 62
  256
370
   -1
100
AcDbLine
 10
162.7980021920982
 20
271.2306695894642
 11
192.7980021920982
 21
219.269145362398
  0
LINE
  5
8D
100
AcDbEntity
  8
full_occluders
  6
ByLayer
 62
  256
370
   -1
100
AcDbLine
 10
192.7980021920982
 20
219.269145362398
 11
198.8268590217984
 21
118.8268590217985
  0
LINE
  5
8E
100
AcDbEntity
  8
full_occluders
  6
ByLayer
 62
  256
370
   -1
100
AcDbLine
 10
198.8268590217984
 20
118.8268590217985
 11
169.3653347947321
 21
49.85571585149874
  0
LINE
  5
8F
100
AcDbEntity
  8
full_occluders
  6
ByLayer
 62
  256
370
   -1
100
AcDbLine
 10
169.3653347947321
 20
49.85571585149874
 11
67.4519052838329
 21
-43.62504626203443
  0
LINE
  5
90
100
AcDbEntity
  8
full_occluders
  6
ByLayer
 62
  256
370
   -1
100
AcDbLine
 10
67.4519052838329
 20
-43.62504626203443
 11
50.98076211353316
 21
-105.0961894323342
  0
LINE
  5
91
100
AcDbEntity
  8
full_occluders
  6
ByLayer
 62
  256
370
   -1
100
AcDbLine
 10
50.98076211353316
 20
-105.0961894323342
 11
136.9615242270663
 21
-194.0192378864668
  0
LINE
  5
92
100
AcDbEntity
  8
full_occluders
  6
ByLayer
 62
  256
370
   -1
100
AcDbLine
 10
136.9615242270663
 20
-194.0192378864668
 11
190.9326673973661
 21
-197.5
  0
LINE
  5
93
100
AcDbEntity
  8
full_occluders
  6
ByLayer
 62
  256
370
   -1
100
AcDbLine
 10
190.9326673973661
 20
-197.5
 11
231.9134295108992
 21
-208.4807621135331
  0
LINE
  5
94
100
AcDbEntity
  8
full_occluders
  6
ByLayer
 62
  256
370
   -1
100
AcDbLine
 10
231.9134295108992
 20
-208.4807621135331
 11
276.9134295108992
 21
-286.4230484541326
  0
LINE
  5
95
100
AcDbEntity
  8
full_occluders
  6
ByLayer
 62
  256
370
   -1
100
AcDbLine
 10
276.9134295108992
 20
-286.4230484541326
 11
280.9326673973661
 21
-353.3845726811989
  0
LINE
  5
96
100
AcDbEntity
  8
full_occluders
  6
ByLayer
 62
  256
370
   -1
100
AcDbLine
 10
280.9326673973661
 20
-353.3845726811989
 11
258.9711431702997
 21
-435.3460969082653
  0
LINE
  5
97
100
AcDbEntity
  8
full_occluders
  6
ByLayer
 62
  256
370
   -1
100
AcDbLine
 10
258.9711431702997
 20
-435.3460969082653
 11
244.5096189432334
 21
-530.2980021920981
  0
LINE
  5
98
100
AcDbEntity
  8
full_occluders
  6
ByLayer
 62
  256
370
   -1
100
AcDbLine
 10
244.5096189432334
 20
-530.2980021920981
 11
218.5288568297003
 21
-545.2980021920981
  0
CIRCLE
  5
99
100
AcDbEntity
  8
player_start
  6
ByLayer
 62
  256
370
   -1
100
AcDbCircle
 10
154.1354585474984
 20
-433.7653646953062
 40
21.21320343559642
  0
CIRCLE
  5
9A
100
AcDbEntity
  8
elder_start
  6
ByLayer
 62
  256
370
   -1
100
AcDbCircle
 10
4.50961894323342
 20
-114.6058083755676
 40
21.21320343559642
  0
CIRCLE
  5
9B
100
AcDbEntity
  8
sword_start
  6
ByLayer
 62
  256
370
   -1
100
AcDbCircle
 10
146.3268590217984
 20
209.7595264191645
 40
21.21320343559643
  0
CIRCLE
  5
9C
100
AcDbEntity
  8
wormfields
  6
ByLayer
 62
  256
370
   -1
100
AcDbCircle
 10
-250.884572681199
 20
-2.250092524068862
 40
54.08326913195984
  0
LINE
  5
9D
100
AcDbEntity
  8
full_occluders
  6
ByLayer
 62
  256
370
   -1
100
AcDbLine
 10
-141.4711431702997
 20
78.2402885326977
 11
-146.9615242270663
 21
57.74990747593114
  0
LINE
  5
9E
100
AcDbEntity
  8
full_occluders
  6
ByLayer
 62
  256
370
   -1
100
AcDbLine
 10
-146.9615242270663
 20
57.74990747593114
 11
-139.4615242270663
 21
44.75952641916456
  0
LINE
  5
9F
100
AcDbEntity
  8
full_occluders
  6
ByLayer
 62
  256
370
   -1
100
AcDbLine
 10
-139.4615242270663
 20
44.75952641916456
 11
-126.4711431702997
 21
52.25952641916456
  0
LINE
  5
A0
100
AcDbEntity
  8
full_occluders
  6
ByLayer
 62
  256
370
   -1
100
AcDbLine
 10
-126.4711431702997
 20
52.25952641916456
 11
-113.4807621135332
 21
59.75952641916456
  0
LINE
  5
A1
100
AcDbEntity
  8
full_occluders
  6
ByLayer
 62
  256
370
   -1
100
AcDbLine
 10
-113.4807621135332
 20
59.75952641916456
 11
-120.9807621135332
 21
72.74990747593114
  0
LINE
  5
A2
100
AcDbEntity
  8
full_occluders
  6
ByLayer
 62
  256
370
   -1
100
AcDbLine
 10
-120.9807621135332
 20
72.74990747593114
 11
-141.4711431702997
 21
78.2402885326977
  0
LINE
  5
A3
100
AcDbEntity
  8
full_occluders
  6
ByLayer
 62
  256
370
   -1
100
AcDbLine
 10
-197.4519052838329
 20
115.201812759764
 11
-203.5451720235695
 21
104.7556603370574
  0
LINE
  5
A4
100
AcDbEntity
  8
full_occluders
  6
ByLayer
 62
  256
370
   -1
100
AcDbLine
 10
-203.5451720235695
 20
104.7556603370574
 11
-203.6922863405995
 21
96.01046980867412
  0
LINE
  5
A5
100
AcDbEntity
  8
full_occluders
  6
ByLayer
 62
  256
370
   -1
100
AcDbLine
 10
-203.6922863405995
 20
96.01046980867412
 11
-183.1480577065395
 21
78.42682201217093
  0
LINE
  5
A6
100
AcDbEntity
  8
full_occluders
  6
ByLayer
 62
  256
370
   -1
100
AcDbLine
 10
-183.1480577065395
 20
78.42682201217093
 11
-161.0644099100363
 21
91.17682201217093
  0
LINE
  5
A7
100
AcDbEntity
  8
full_occluders
  6
ByLayer
 62
  256
370
   -1
100
AcDbLine
 10
-161.0644099100363
 20
91.17682201217093
 11
-155.9221050646231
 21
106.2700887519075
  0
LINE
  5
A8
100
AcDbEntity
  8
full_occluders
  6
ByLayer
 62
  256
370
   -1
100
AcDbLine
 10
-155.9221050646231
 20
106.2700887519075
 11
-163.6230669589464
 21
122.6085460200274
  0
LINE
  5
A9
100
AcDbEntity
  8
full_occluders
  6
ByLayer
 62
  256
370
   -1
100
AcDbLine
 10
-163.6230669589464
 20
122.6085460200274
 11
-182.4124861213896
 21
122.1527746540874
  0
LINE
  5
AA
100
AcDbEntity
  8
full_occluders
  6
ByLayer
 62
  256
370
   -1
100
AcDbLine
 10
-182.4124861213896
 20
122.1527746540874
 11
-197.4519052838329
 21
115.201812759764
  0
LINE
  5
AB
100
AcDbEntity
  8
full_occluders
  6
ByLayer
 62
  256
370
   -1
100
AcDbLine
 10
-198.8547724619891
 20
-29.36835001139858
 11
-208.4970773074024
 21
-36.66738811707523
  0
LINE
  5
AC
100
AcDbEntity
  8
full_occluders
  6
ByLayer
 62
  256
370
   -1
100
AcDbLine
 10
-208.4970773074024
 20
-36.66738811707523
 11
-203.943229730109
 21
-56.55488349087179
  0
LINE
  5
AD
100
AcDbEntity
  8
full_occluders
  6
ByLayer
 62
  256
370
   -1
100
AcDbLine
 10
-203.943229730109
 20
-56.55488349087179
 11
-178.0557343563125
 21
-62.39334075899168
  0
LINE
  5
AE
100
AcDbEntity
  8
full_occluders
  6
ByLayer
 62
  256
370
   -1
100
AcDbLine
 10
-178.0557343563125
 20
-62.39334075899168
 11
-161.5701627711626
 21
-45.94718833628505
  0
LINE
  5
AF
100
AcDbEntity
  8
full_occluders
  6
ByLayer
 62
  256
370
   -1
100
AcDbLine
 10
-161.5701627711626
 20
-45.94718833628505
 11
-157.9278579257493
 21
-28.25584538519513
  0
LINE
  5
B0
100
AcDbEntity
  8
full_occluders
  6
ByLayer
 62
  256
370
   -1
100
AcDbLine
 10
-157.9278579257493
 20
-28.25584538519513
 11
-168.5749722427793
 21
-18.81450243410521
  0
LINE
  5
B1
100
AcDbEntity
  8
full_occluders
  6
ByLayer
 62
  256
370
   -1
100
AcDbLine
 10
-168.5749722427793
 20
-18.81450243410521
 11
-193.8595819336059
 21
-23.02027380004526
  0
LINE
  5
B2
100
AcDbEntity
  8
full_occluders
  6
ByLayer
 62
  256
370
   -1
100
AcDbLine
 10
-193.8595819336059
 20
-23.02027380004526
 11
-198.8547724619891
 21
-29.36835001139858
  0
LINE
  5
B3
100
AcDbEntity
  8
full_occluders
  6
ByLayer
 62
  256
370
   -1
100
AcDbLine
 10
-330.5855345755223
 20
138.7960228890102
 11
-334.8307251039056
 21
131.1489085719803
  0
LINE
  5
B4
100
AcDbEntity
  8
full_occluders
  6
ByLayer
 62
  256
370
   -1
100
AcDbLine
 10
-334.8307251039056
 20
131.1489085719803
 11
-327.5316869982289
 21
121.506603726567
  0
LINE
  5
B5
100
AcDbEntity
  8
full_occluders
  6
ByLayer
 62
  256
370
   -1
100
AcDbLine
 10
-327.5316869982289
 20
121.506603726567
 11
-311.7422678357857
 21
127.1585275152136
  0
LINE
  5
B6
100
AcDbEntity
  8
full_occluders
  6
ByLayer
 62
  256
370
   -1
100
AcDbLine
 10
-311.7422678357857
 20
127.1585275152136
 11
-310.8451535187558
 21
134.6046799379203
  0
LINE
  5
B7
100
AcDbEntity
  8
full_occluders
  6
ByLayer
 62
  256
370
   -1
100
AcDbLine
 10
-310.8451535187558
 20
134.6046799379203
 11
-312.1980392017257
 21
145.9479466776569
  0
LINE
  5
B8
100
AcDbEntity
  8
full_occluders
  6
ByLayer
 62
  256
370
   -1
100
AcDbLine
 10
-312.1980392017257
 20
145.9479466776569
 11
-328.3893821528156
 21
146.9921753117169
  0
LINE
  5
B9
100
AcDbEntity
  8
full_occluders
  6
ByLayer
 62
  256
370
   -1
100
AcDbLine
 10
-328.3893821528156
 20
146.9921753117169
 11
-330.5855345755223
 21
138.7960228890102
  0
ENDSEC
  0
SECTION
  2
OBJECTS
  0
DICTIONARY
  5
C
330
0
100
AcDbDictionary
281
    1
  3
ACAD_GROUP
350
D
  0
DICTIONARY
  5
D
330
C
100
AcDbDictionary
281
    1
  0
ENDSEC
  0
EOF
